<?xml version="1.0" encoding="utf-8"?>
<!-- Generator: Adobe Illustrator 27.5.0, SVG Export Plug-In . SVG Version: 6.00 Build 0)  -->
<svg version="1.1" id="BACKGROUND" xmlns="http://www.w3.org/2000/svg" xmlns:xlink="http://www.w3.org/1999/xlink" x="0px" y="0px"
	 viewBox="0 0 750 500" style="enable-background:new 0 0 750 500;" xml:space="preserve">
<g>
	<rect style="fill:#F2B705;" width="750" height="500"/>
	<g>
		<g>
			<path style="opacity:0.3;fill:#EF8007;" d="M333.159,0c0,0,13.816,30.941,97.722,25.165
				c38.816-2.672,94.379-6.851,118.065,26.805c23.688,33.656,31.863,51.987,86.979,37.624
				c55.116-14.364,69.281,17.658,65.739,64.792c-3.541,47.135,4.607,65.079,48.335,73.221V0H333.159z"/>
			<path style="opacity:0.5;fill:#EF8007;" d="M446.479,0c0,0,10.061,22.53,71.156,18.324c28.263-1.946,68.721-4.989,85.968,19.518
				c17.248,24.506,23.202,37.854,63.335,27.396c40.132-10.459,50.445,12.857,47.867,47.178
				c-2.578,34.321,3.354,47.387,35.194,53.316V0H446.479z"/>
		</g>
		<g>
			<path style="opacity:0.3;fill:#EF8007;" d="M397.923,500c0,0-13.189-29.537-93.287-24.022
				c-37.055,2.55-90.096,6.539-112.708-25.589c-22.612-32.129-30.417-49.628-83.032-35.916
				c-52.615,13.712-66.136-16.856-62.755-61.852c3.38-44.996-4.397-62.125-46.141-69.898V500H397.923z"/>
			<path style="opacity:0.5;fill:#EF8007;" d="M289.745,500c0,0-9.604-21.508-67.926-17.492
				c-26.98,1.857-65.602,4.762-82.066-18.632c-16.465-23.395-22.148-36.137-60.46-26.152c-38.311,9.984-48.156-12.273-45.695-45.037
				c2.461-32.763-3.202-45.235-33.597-50.896V500H289.745z"/>
		</g>
	</g>
	<g>
		<defs>
			
				<ellipse id="SVGID_1_" transform="matrix(0.2072 -0.9783 0.9783 0.2072 55.7626 592.0426)" cx="393.183" cy="261.615" rx="166.655" ry="166.656"/>
		</defs>
		<clipPath id="SVGID_00000160878008377220126960000017018045911385803950_">
			<use xlink:href="#SVGID_1_"  style="overflow:visible;"/>
		</clipPath>
		<g style="clip-path:url(#SVGID_00000160878008377220126960000017018045911385803950_);">
			<g>
				<g>
					<g>
						<g>
							<g>
								
									<rect x="-20.488" y="99.125" transform="matrix(0.7071 -0.7071 0.7071 0.7071 3.0748 206.6721)" style="fill:#734B02;" width="543.001" height="1"/>
							</g>
							<g>
								
									<rect x="-13.416" y="106.195" transform="matrix(0.7071 -0.7071 0.7071 0.7071 0.1461 213.7433)" style="fill:#734B02;" width="543" height="1"/>
							</g>
						</g>
						<g>
							<g>
								
									<rect x="-6.345" y="113.267" transform="matrix(0.7071 -0.7071 0.7071 0.7071 -2.783 220.8144)" style="fill:#734B02;" width="543" height="1"/>
							</g>
							<g>
								
									<rect x="0.726" y="120.338" transform="matrix(0.7071 -0.7071 0.7071 0.7071 -5.7121 227.8857)" style="fill:#734B02;" width="543" height="1"/>
							</g>
						</g>
					</g>
					<g>
						<g>
							<g>
								
									<rect x="7.797" y="127.409" transform="matrix(0.7071 -0.7071 0.7071 0.7071 -8.6408 234.9566)" style="fill:#734B02;" width="543.001" height="1"/>
							</g>
							<g>
								
									<rect x="14.868" y="134.48" transform="matrix(0.7071 -0.7071 0.7071 0.7071 -11.5696 242.0275)" style="fill:#734B02;" width="543" height="1"/>
							</g>
						</g>
						<g>
							<g>
								
									<rect x="21.939" y="141.551" transform="matrix(0.7071 -0.7071 0.7071 0.7071 -14.4987 249.0986)" style="fill:#734B02;" width="543" height="1"/>
							</g>
							<g>
								
									<rect x="29.01" y="148.622" transform="matrix(0.7071 -0.7071 0.7071 0.7071 -17.4277 256.1699)" style="fill:#734B02;" width="543" height="1"/>
							</g>
						</g>
					</g>
				</g>
				<g>
					<g>
						<g>
							<g>
								
									<rect x="36.081" y="155.693" transform="matrix(0.7071 -0.7071 0.7071 0.7071 -20.3618 263.2246)" style="fill:#734B02;" width="543.001" height="1"/>
							</g>
							<g>
								
									<rect x="43.152" y="162.764" transform="matrix(0.7071 -0.7071 0.7071 0.7071 -23.2905 270.2952)" style="fill:#734B02;" width="543.001" height="1"/>
							</g>
						</g>
						<g>
							<g>
								
									<rect x="50.223" y="169.835" transform="matrix(0.7071 -0.7071 0.7071 0.7071 -26.2197 277.3655)" style="fill:#734B02;" width="543" height="1"/>
							</g>
							<g>
								
									<rect x="57.295" y="176.906" transform="matrix(0.7071 -0.7071 0.7071 0.7071 -29.1434 284.454)" style="fill:#734B02;" width="543" height="1"/>
							</g>
						</g>
					</g>
					<g>
						<g>
							<g>
								
									<rect x="64.366" y="183.978" transform="matrix(0.7071 -0.7071 0.7071 0.7071 -32.0724 291.5253)" style="fill:#734B02;" width="543" height="1"/>
							</g>
							<g>
								
									<rect x="71.437" y="191.048" transform="matrix(0.7071 -0.7071 0.7071 0.7071 -35.0011 298.5965)" style="fill:#734B02;" width="543.001" height="1"/>
							</g>
						</g>
						<g>
							<g>
								
									<rect x="78.507" y="198.119" transform="matrix(0.7071 -0.7071 0.7071 0.7071 -37.9301 305.6669)" style="fill:#734B02;" width="543" height="1"/>
							</g>
							<g>
								
									<rect x="85.579" y="205.19" transform="matrix(0.7071 -0.7071 0.7071 0.7071 -40.8591 312.7382)" style="fill:#734B02;" width="543" height="1"/>
							</g>
						</g>
					</g>
				</g>
			</g>
			<g>
				<g>
					<g>
						<g>
							<g>
								
									<rect x="92.65" y="212.262" transform="matrix(0.7071 -0.7071 0.7071 0.7071 -43.7881 319.8095)" style="fill:#734B02;" width="543" height="1"/>
							</g>
							<g>
								
									<rect x="99.721" y="219.333" transform="matrix(0.7071 -0.7071 0.7071 0.7071 -46.7168 326.8806)" style="fill:#734B02;" width="543.001" height="1"/>
							</g>
						</g>
						<g>
							<g>
								
									<rect x="106.792" y="226.403" transform="matrix(0.7071 -0.7071 0.7071 0.7071 -49.6458 333.9511)" style="fill:#734B02;" width="543" height="1"/>
							</g>
							<g>
								
									<rect x="113.863" y="233.475" transform="matrix(0.7071 -0.7071 0.7071 0.7071 -52.5748 341.0224)" style="fill:#734B02;" width="543" height="1"/>
							</g>
						</g>
					</g>
					<g>
						<g>
							<g>
								
									<rect x="120.934" y="240.546" transform="matrix(0.7071 -0.7071 0.7071 0.7071 -55.5038 348.0937)" style="fill:#734B02;" width="543" height="1"/>
							</g>
							<g>
								
									<rect x="128.005" y="247.617" transform="matrix(0.7071 -0.7071 0.7071 0.7071 -58.4329 355.165)" style="fill:#734B02;" width="543" height="1"/>
							</g>
						</g>
						<g>
							<g>
								
									<rect x="135.076" y="254.688" transform="matrix(0.7071 -0.7071 0.7071 0.7071 -61.3615 362.2361)" style="fill:#734B02;" width="543.001" height="1"/>
							</g>
							<g>
								
									<rect x="142.147" y="261.759" transform="matrix(0.7071 -0.7071 0.7071 0.7071 -64.2905 369.3066)" style="fill:#734B02;" width="543" height="1"/>
							</g>
						</g>
					</g>
				</g>
				<g>
					<g>
						<g>
							<g>
								
									<rect x="149.218" y="268.83" transform="matrix(0.7071 -0.7071 0.7071 0.7071 -67.2195 376.3779)" style="fill:#734B02;" width="543" height="1"/>
							</g>
							<g>
								
									<rect x="156.29" y="275.901" transform="matrix(0.7071 -0.7071 0.7071 0.7071 -70.1486 383.4491)" style="fill:#734B02;" width="543" height="1"/>
							</g>
						</g>
						<g>
							<g>
								
									<rect x="163.361" y="282.972" transform="matrix(0.7071 -0.7071 0.7071 0.7071 -73.0772 390.5203)" style="fill:#734B02;" width="543.001" height="1"/>
							</g>
							<g>
								
									<rect x="170.431" y="290.043" transform="matrix(0.7071 -0.7071 0.7071 0.7071 -76.0062 397.5907)" style="fill:#734B02;" width="543" height="1"/>
							</g>
						</g>
					</g>
					<g>
						<g>
							<g>
								
									<rect x="177.503" y="297.114" transform="matrix(0.7071 -0.7071 0.7071 0.7071 -78.9352 404.662)" style="fill:#734B02;" width="543" height="1"/>
							</g>
							<g>
								
									<rect x="184.574" y="304.186" transform="matrix(0.7071 -0.7071 0.7071 0.7071 -81.8643 411.7333)" style="fill:#734B02;" width="543" height="1"/>
							</g>
						</g>
						<g>
							<g>
								
									<rect x="191.645" y="311.256" transform="matrix(0.7071 -0.7071 0.7071 0.7071 -84.7929 418.8045)" style="fill:#734B02;" width="543.001" height="1"/>
							</g>
							<g>
								
									<rect x="198.715" y="318.327" transform="matrix(0.7071 -0.7071 0.7071 0.7071 -87.7219 425.8749)" style="fill:#734B02;" width="543" height="1"/>
							</g>
						</g>
					</g>
				</g>
			</g>
			<g>
				<g>
					<g>
						<g>
							<g>
								
									<rect x="205.079" y="324.69" transform="matrix(0.7071 -0.7071 0.7071 0.7071 -90.3576 432.2382)" style="fill:#734B02;" width="543" height="1"/>
							</g>
							<g>
								
									<rect x="212.15" y="331.761" transform="matrix(0.7071 -0.7071 0.7071 0.7071 -93.2863 439.3094)" style="fill:#734B02;" width="543.001" height="1"/>
							</g>
						</g>
						<g>
							<g>
								
									<rect x="219.22" y="338.832" transform="matrix(0.7071 -0.7071 0.7071 0.7071 -96.2153 446.3798)" style="fill:#734B02;" width="543" height="1"/>
							</g>
							<g>
								
									<rect x="226.292" y="345.903" transform="matrix(0.7071 -0.7071 0.7071 0.7071 -99.1443 453.4511)" style="fill:#734B02;" width="543" height="1"/>
							</g>
						</g>
					</g>
					<g>
						<g>
							<g>
								
									<rect x="233.363" y="352.975" transform="matrix(0.7071 -0.7071 0.7071 0.7071 -102.0733 460.5224)" style="fill:#734B02;" width="543" height="1"/>
							</g>
							<g>
								
									<rect x="240.434" y="360.046" transform="matrix(0.7071 -0.7071 0.7071 0.7071 -105.0024 467.5937)" style="fill:#734B02;" width="543" height="1"/>
							</g>
						</g>
						<g>
							<g>
								
									<rect x="247.504" y="367.117" transform="matrix(0.7071 -0.7071 0.7071 0.7071 -107.9313 474.6641)" style="fill:#734B02;" width="543.001" height="1"/>
							</g>
							<g>
								
									<rect x="254.576" y="374.188" transform="matrix(0.7071 -0.7071 0.7071 0.7071 -110.86 481.7353)" style="fill:#734B02;" width="543" height="1"/>
							</g>
						</g>
					</g>
				</g>
				<g>
					<g>
						<g>
							<g>
								
									<rect x="261.647" y="381.259" transform="matrix(0.7071 -0.7071 0.7071 0.7071 -113.789 488.8066)" style="fill:#734B02;" width="543" height="1"/>
							</g>
							<g>
								
									<rect x="268.718" y="388.33" transform="matrix(0.7071 -0.7071 0.7071 0.7071 -116.7181 495.8779)" style="fill:#734B02;" width="543" height="1"/>
							</g>
						</g>
						<g>
							<g>
								
									<rect x="275.789" y="395.401" transform="matrix(0.7071 -0.7071 0.7071 0.7071 -119.6467 502.949)" style="fill:#734B02;" width="543.001" height="1"/>
							</g>
							<g>
								
									<rect x="282.86" y="402.472" transform="matrix(0.7071 -0.7071 0.7071 0.7071 -122.5757 510.0195)" style="fill:#734B02;" width="543" height="1"/>
							</g>
						</g>
					</g>
					<g>
						<g>
							<g>
								
									<rect x="289.931" y="409.543" transform="matrix(0.7071 -0.7071 0.7071 0.7071 -125.5047 517.0907)" style="fill:#734B02;" width="543" height="1"/>
							</g>
							<g>
								
									<rect x="297.003" y="416.614" transform="matrix(0.7071 -0.7071 0.7071 0.7071 -128.4332 524.1653)" style="fill:#734B02;" width="543" height="1"/>
							</g>
						</g>
						<g>
							<g>
								
									<rect x="304.074" y="423.685" transform="matrix(0.7072 -0.7071 0.7071 0.7072 -131.3699 531.1833)" style="fill:#734B02;" width="543.001" height="1"/>
							</g>
							<g>
								
									<rect x="311.146" y="430.756" transform="matrix(0.7072 -0.7071 0.7071 0.7072 -134.299 538.2539)" style="fill:#734B02;" width="542.999" height="1"/>
							</g>
						</g>
					</g>
				</g>
			</g>
		</g>
	</g>
	<path style="opacity:0.2;fill:#FFFFFF;" d="M443.071,123.239c0,36.139-29.297,65.436-65.438,65.436
		c-36.139,0-65.436-29.297-65.436-65.436c0-36.14,29.297-65.437,65.436-65.437C413.774,57.802,443.071,87.1,443.071,123.239z"/>
	<g>
		<path style="fill:#734B02;" d="M351.003,431.339c-92.148,0-167.116-74.967-167.116-167.115S258.855,97.106,351.003,97.106
			c92.15,0,167.116,74.969,167.116,167.117S443.153,431.339,351.003,431.339z M351.003,98.027
			c-91.64,0-166.195,74.556-166.195,166.196s74.555,166.193,166.195,166.193c91.641,0,166.195-74.553,166.195-166.193
			S442.645,98.027,351.003,98.027z"/>
	</g>
	<g>
		<path style="fill:#FFFFFF;" d="M376.786,449.579c-92.149,0-167.117-74.967-167.117-167.115s74.968-167.116,167.117-167.116
			c92.148,0,167.115,74.968,167.115,167.116S468.935,449.579,376.786,449.579z M376.786,116.269
			c-91.641,0-166.196,74.555-166.196,166.195c0,91.641,74.555,166.195,166.196,166.195c91.64,0,166.194-74.555,166.194-166.195
			C542.98,190.823,468.426,116.269,376.786,116.269z"/>
	</g>
	
		<ellipse transform="matrix(0.2075 -0.9782 0.9782 0.2075 33.7694 589.147)" style="opacity:0.4;fill:#BF846F;" cx="380.508" cy="273.731" rx="166.655" ry="166.656"/>
	
		<ellipse transform="matrix(0.1978 -0.9802 0.9802 0.1978 42.7012 561.6418)" style="opacity:0.9;fill:#FFFFFF;" cx="364.508" cy="254.731" rx="158.5" ry="158.501"/>
	<g>
		
			<text transform="matrix(1 0 0 1 243.9448 263.8555)" style="fill:#734B02; font-family:'Montserrat-Black'; font-size:53.9401px;">COMING</text>
		<g>
			
				<text transform="matrix(1 0 0 1 252.5615 334.4023)" style="fill:none;stroke:#734B02;stroke-width:0.5;stroke-miterlimit:10; font-family:'Montserrat-Black'; font-size:74.1285px;">SOON</text>
			
				<text transform="matrix(1 0 0 1 247.4619 331.8525)" style="fill:#BF846F; font-family:'Montserrat-Black'; font-size:74.1285px;">SOON</text>
		</g>
	</g>
	<path style="opacity:0.8;fill:#F29F05;" d="M530.218,392.272c0,21.708-17.598,39.306-39.307,39.306
		c-21.708,0-39.306-17.598-39.306-39.306c0-21.709,17.598-39.307,39.306-39.307C512.62,352.966,530.218,370.564,530.218,392.272z"/>
	
		<ellipse transform="matrix(0.7359 -0.6771 0.6771 0.7359 -52.9661 199.8619)" style="fill:#FFE094;" cx="229.712" cy="167.826" rx="15.86" ry="15.86"/>
	<g>
		<g>
			<polygon style="fill:#D97904;" points="281.177,381.098 303.445,381.995 303.246,386.934 284.31,386.172 275.835,404.966 
				255.233,404.137 246.755,422.932 226.152,422.103 218.358,439.381 213.852,437.347 223.018,417.031 243.621,417.858 
				252.099,399.064 272.7,399.893 			"/>
		</g>
		<g>
			<polygon style="fill:#FFE094;" points="157.385,147.926 179.652,148.823 179.453,153.762 160.518,153 152.042,171.794 
				131.44,170.965 122.963,189.76 102.359,188.932 94.565,206.209 90.06,204.175 99.225,183.859 119.828,184.686 128.307,165.892 
				148.907,166.721 			"/>
		</g>
		<g>
			<polygon style="fill:#D97904;" points="522.072,129.824 544.34,130.722 544.141,135.66 525.205,134.898 516.729,153.692 
				496.128,152.863 487.65,171.658 467.047,170.83 459.253,188.107 454.747,186.073 463.912,165.758 484.516,166.585 
				492.994,147.79 513.595,148.619 			"/>
		</g>
		<g>
			<polygon style="fill:#FFE094;" points="645.894,268.73 668.162,269.628 667.963,274.566 649.027,273.805 640.552,292.599 
				619.95,291.77 611.473,310.565 590.869,309.736 583.075,327.014 578.569,324.979 587.734,304.664 608.338,305.491 
				616.816,286.696 637.417,287.525 			"/>
		</g>
	</g>
	<g>
		<polygon style="fill:#FFFFFF;" points="161.636,217.214 158.24,209.72 154.843,217.214 148.338,220.826 154.843,224.44 
			158.24,231.933 161.636,224.44 168.142,220.826 		"/>
		<polygon style="fill:#FFFFFF;" points="123.145,112.273 121.062,107.677 118.979,112.273 114.989,114.488 118.979,116.704 
			121.062,121.299 123.145,116.704 127.134,114.488 		"/>
		<polygon style="fill:#FFFFFF;" points="110.998,340.414 108.916,335.817 106.832,340.414 102.843,342.63 106.832,344.845 
			108.916,349.44 110.998,344.845 114.989,342.63 		"/>
		<polygon style="fill:#FFFFFF;" points="596.512,127.609 594.43,123.013 592.346,127.609 588.356,129.825 592.346,132.04 
			594.43,136.635 596.512,132.04 600.502,129.825 		"/>
		<polygon style="fill:#FFFFFF;" points="484.406,72.473 481.01,64.979 477.613,72.473 471.107,76.085 477.613,79.699 
			481.01,87.191 484.406,79.699 490.912,76.085 		"/>
		<polygon style="fill:#FFFFFF;" points="597.825,396.659 594.429,389.165 591.032,396.659 584.526,400.272 591.032,403.886 
			594.429,411.378 597.825,403.886 604.331,400.272 		"/>
	</g>
	<g>
		<g>
			<path style="fill:#FFE094;" d="M188.355,414.168c-6.037,0-10.948-4.911-10.948-10.948s4.911-10.948,10.948-10.948
				s10.948,4.911,10.948,10.948S194.393,414.168,188.355,414.168z M188.355,393.272c-5.485,0-9.948,4.463-9.948,9.948
				c0,5.485,4.463,9.948,9.948,9.948c5.485,0,9.948-4.463,9.948-9.948C198.304,397.734,193.841,393.272,188.355,393.272z"/>
		</g>
		<g>
			<path style="fill:#FFE094;" d="M654.419,132.247c-6.036,0-10.947-4.911-10.947-10.948c0-6.037,4.911-10.948,10.947-10.948
				c6.037,0,10.949,4.911,10.949,10.948C665.368,127.336,660.456,132.247,654.419,132.247z M654.419,111.351
				c-5.485,0-9.947,4.463-9.947,9.948c0,5.485,4.462,9.948,9.947,9.948c5.486,0,9.949-4.463,9.949-9.948
				C664.368,115.813,659.905,111.351,654.419,111.351z"/>
		</g>
		<g>
			<path style="fill:#FFE094;" d="M150.716,329.093c-9.021,0-16.36-7.339-16.36-16.36c0-9.021,7.339-16.36,16.36-16.36
				c9.021,0,16.36,7.339,16.36,16.36C167.077,321.754,159.737,329.093,150.716,329.093z M150.716,297.372
				c-8.47,0-15.36,6.891-15.36,15.36s6.891,15.36,15.36,15.36c8.47,0,15.36-6.891,15.36-15.36S159.186,297.372,150.716,297.372z"/>
		</g>
		<g>
			<path style="fill:#FFE094;" d="M165.142,88.325c-9.021,0-16.36-7.34-16.36-16.36c0-9.021,7.339-16.36,16.36-16.36
				s16.36,7.339,16.36,16.36C181.502,80.985,174.163,88.325,165.142,88.325z M165.142,56.604c-8.47,0-15.36,6.891-15.36,15.36
				c0,8.47,6.891,15.36,15.36,15.36s15.36-6.891,15.36-15.36C180.502,63.495,173.611,56.604,165.142,56.604z"/>
		</g>
		<g>
			<path style="fill:#FFE094;" d="M639.394,372.11c-6.036,0-10.947-4.911-10.947-10.948c0-6.037,4.911-10.948,10.947-10.948
				c6.037,0,10.949,4.911,10.949,10.948C650.343,367.199,645.431,372.11,639.394,372.11z M639.394,351.214
				c-5.485,0-9.947,4.463-9.947,9.948c0,5.485,4.462,9.948,9.947,9.948c5.486,0,9.949-4.463,9.949-9.948
				C649.343,355.677,644.88,351.214,639.394,351.214z"/>
		</g>
		<g>
			<path style="fill:#FFE094;" d="M583.33,257.581c-9.021,0-16.36-7.34-16.36-16.361c0-9.02,7.339-16.36,16.36-16.36
				s16.36,7.34,16.36,16.36C599.69,250.241,592.352,257.581,583.33,257.581z M583.33,225.859c-8.47,0-15.36,6.891-15.36,15.36
				c0,8.471,6.891,15.361,15.36,15.361c8.47,0,15.36-6.891,15.36-15.361C598.69,232.75,591.8,225.859,583.33,225.859z"/>
		</g>
	</g>
	<g>
		
			<ellipse transform="matrix(0.1241 -0.9923 0.9923 0.1241 193.171 473.4406)" style="fill:#F29F05;" cx="364.768" cy="127.298" rx="65.437" ry="65.437"/>
		<g>
			<g>
				<path style="fill:#BF846F;" d="M384.721,121.485c0.783,3.379-1.32,6.753-4.699,7.536c-3.377,0.784-6.752-1.319-7.536-4.698
					c-0.784-3.377,1.319-6.752,4.699-7.536C380.563,116.004,383.938,118.107,384.721,121.485z"/>
				<g>
					<g>
						<path style="fill:#FFE094;" d="M348.57,161.936c-7.93,1.838-15.878-3.117-17.718-11.047
							c-1.839-7.93,3.118-15.879,11.048-17.719c7.929-1.839,15.877,3.116,17.716,11.047
							C361.456,152.148,356.5,160.097,348.57,161.936z M342.82,137.139c-5.744,1.332-9.332,7.087-8,12.83
							c1.333,5.743,7.088,9.331,12.831,7.999c5.743-1.332,9.33-7.088,7.999-12.831C354.317,139.395,348.563,135.807,342.82,137.139z
							"/>
					</g>
					<g>
						<path style="fill:#BF846F;" d="M329.774,115.729l-7.018,3.716c-4.055,2.349-6.506,8.003-5.447,12.568l2.199,9.485
							c1.059,4.564,5.749,8.563,10.424,8.888l7.938,0.246L329.774,115.729z"/>
						<path style="fill:#734B02;" d="M364.331,97.429l-34.558,18.299l8.096,34.905l39.084,1.218
							c4.676,0.324,7.633-3.148,6.576-7.711l-9.901-42.682C372.569,96.893,368.386,95.081,364.331,97.429z"/>
						<path style="opacity:0.1;fill:#132044;" d="M374.922,143.09l-39.085-1.218v-0.001l-7.937-0.246
							c-4.675-0.324-9.365-4.323-10.424-8.888l2.032,8.762c1.059,4.564,5.749,8.563,10.424,8.888l7.938,0.246v0.001l39.084,1.218
							c4.676,0.324,7.633-3.148,6.576-7.711l-2.033-8.763C382.556,139.942,379.598,143.413,374.922,143.09z"/>
					</g>
				</g>
			</g>
			<g>
				<g>
					<path style="fill:#FFE094;" d="M391.023,120.783c5.881-1.65,11.763-3.303,17.645-4.954c1.579-0.444,0.894-2.895-0.688-2.45
						c-5.882,1.65-11.766,3.302-17.647,4.954C388.755,118.776,389.441,121.228,391.023,120.783L391.023,120.783z"/>
				</g>
				<g>
					<g>
						<path style="fill:#FFE094;" d="M389.88,113.954c5.134-3.314,10.265-6.629,15.397-9.943c1.373-0.888,0.067-3.074-1.315-2.182
							c-5.131,3.315-10.264,6.63-15.395,9.945C387.193,112.662,388.499,114.847,389.88,113.954L389.88,113.954z"/>
					</g>
					<g>
						<path style="fill:#FFE094;" d="M392.927,127.304c6.107,0.16,12.214,0.318,18.323,0.478c1.644,0.043,1.62-2.503-0.015-2.546
							c-6.107-0.16-12.215-0.319-18.32-0.479C391.269,124.715,391.292,127.262,392.927,127.304L392.927,127.304z"/>
					</g>
				</g>
			</g>
		</g>
		<g>
			<path style="fill:#734B02;" d="M356.968,190.352c-36.202,0-65.653-29.452-65.653-65.653c0-36.202,29.451-65.653,65.653-65.653
				c36.2,0,65.653,29.452,65.653,65.653C422.621,160.899,393.168,190.352,356.968,190.352z M356.968,59.478
				c-35.963,0-65.221,29.257-65.221,65.22c0,35.962,29.258,65.22,65.221,65.22s65.221-29.257,65.221-65.22
				C422.189,88.735,392.931,59.478,356.968,59.478z"/>
		</g>
	</g>
	<g>
		<defs>
			<rect id="SVGID_00000060709149270468256320000006526049712397210786_" width="750" height="500"/>
		</defs>
		<clipPath id="SVGID_00000180341111331600259570000002326711749298015416_">
			<use xlink:href="#SVGID_00000060709149270468256320000006526049712397210786_"  style="overflow:visible;"/>
		</clipPath>
		<g style="clip-path:url(#SVGID_00000180341111331600259570000002326711749298015416_);">
			<g style="opacity:0.9;">
				<path style="fill:#FFFFFF;" d="M746.049,186.114c-4.912,0-9.469-0.671-13.726-2.011c-22.804-7.181-33.154-32.86-44.111-60.046
					c-5.951-14.766-12.106-30.034-20.567-43.352c-17.576-27.662-29.58-39.655-45.871-45.83c-16.884-6.4-38.25-6.102-73.655-5.61
					c-7.525,0.104-16.054,0.223-25.155,0.281c-0.489,0.003-0.977,0.004-1.462,0.004c-20.504,0-38.29-2.745-52.883-8.165
					c-11.965-4.443-21.823-10.684-29.303-18.549c-10.2-10.727-13.736-22.495-14.182-27.218l0.498-0.047
					c0.442,4.673,3.953,16.319,14.071,26.946c21.16,22.226,56.971,26.703,83.256,26.528c9.101-0.057,17.628-0.176,25.152-0.281
					c35.46-0.492,56.865-0.792,73.84,5.643c16.405,6.219,28.474,18.264,46.115,46.029c8.486,13.356,14.649,28.646,20.609,43.433
					c10.912,27.074,21.219,52.647,43.798,59.756c20.315,6.398,49.383-2.995,88.851-28.717l0.273,0.419
					c-20.956,13.657-38.537,22.54-53.748,27.155C759.864,184.906,752.638,186.114,746.049,186.114z"/>
			</g>
			<g>
				<path style="fill:#FFFFFF;" d="M253.117,524.19c-27.347-89.424-61.386-84.751-143.62-73.466l-1.014,0.14
					c-26.303,3.606-44.804,0.242-56.563-10.295c-19.747-17.695-18.773-53.82-17.646-95.648c0.129-4.815,0.264-9.796,0.367-14.796
					c0.49-23.675-5.527-41.767-17.883-53.773c-16.92-16.441-40.114-15.5-40.352-15.483l-0.024-0.5
					c0.233-0.008,23.64-0.972,40.72,15.62c12.463,12.107,18.532,30.324,18.039,54.146c-0.104,5.002-0.238,9.983-0.368,14.8
					c-1.123,41.704-2.093,77.722,17.48,95.263c11.642,10.433,30.012,13.759,56.161,10.171l1.014-0.139
					c40.756-5.593,70.202-9.636,92.556-0.998c22.837,8.824,38.272,31.198,51.611,74.813L253.117,524.19z"/>
			</g>
		</g>
	</g>
	<g>
		<defs>
			<rect id="SVGID_00000009578538471270719590000015070436877201781389_" width="750" height="500"/>
		</defs>
		<clipPath id="SVGID_00000059307422189651967240000012381233933111933328_">
			<use xlink:href="#SVGID_00000009578538471270719590000015070436877201781389_"  style="overflow:visible;"/>
		</clipPath>
		<g style="clip-path:url(#SVGID_00000059307422189651967240000012381233933111933328_);">
			<g>
				<path style="fill:#BF846F;" d="M24.211,113.484C20.321,134.73-0.056,148.8-21.302,144.91
					c-21.247-3.89-35.316-24.267-31.426-45.514c3.89-21.246,24.267-35.316,45.514-31.426C14.031,71.86,28.102,92.237,24.211,113.484
					z"/>
				<g>
					<defs>
						<path id="SVGID_00000152231556871663729220000013467855757792012454_" d="M28.463,144.314
							c-3.89,21.246-24.267,35.316-45.514,31.426c-21.246-3.89-35.316-24.267-31.426-45.514C-44.587,108.979-24.21,94.91-2.963,98.8
							C18.283,102.69,32.353,123.067,28.463,144.314z"/>
					</defs>
					<clipPath id="SVGID_00000176019612027488937960000010474125772131478434_">
						<use xlink:href="#SVGID_00000152231556871663729220000013467855757792012454_"  style="overflow:visible;"/>
					</clipPath>
					<g style="clip-path:url(#SVGID_00000176019612027488937960000010474125772131478434_);">
						<g>
							<g>
								<g>
									<g>
										<g>
											
												<rect x="-559.016" y="-72.114" transform="matrix(0.8228 -0.5683 0.5683 0.8228 -10.2446 -176.0869)" style="fill:#734B02;" width="543.001" height="1"/>
										</g>
										<g>
											
												<rect x="-553.333" y="-63.885" transform="matrix(0.823 -0.5681 0.5681 0.823 -13.8849 -171.3263)" style="fill:#734B02;" width="543.001" height="1"/>
										</g>
									</g>
									<g>
										<g>
											
												<rect x="-547.651" y="-55.656" transform="matrix(0.8227 -0.5684 0.5684 0.8227 -17.5995 -166.7484)" style="fill:#734B02;" width="543" height="1"/>
										</g>
										<g>
											
												<rect x="-541.969" y="-47.427" transform="matrix(0.823 -0.568 0.568 0.823 -21.2132 -161.9365)" style="fill:#734B02;" width="543.001" height="1"/>
										</g>
									</g>
								</g>
								<g>
									<g>
										<g>
											
												<rect x="-536.288" y="-39.199" transform="matrix(0.8229 -0.5682 0.5682 0.8229 -24.9063 -157.3033)" style="fill:#734B02;" width="543.001" height="1"/>
										</g>
										<g>
											
												<rect x="-530.605" y="-30.97" transform="matrix(0.823 -0.568 0.568 0.823 -28.5531 -152.5752)" style="fill:#734B02;" width="542.999" height="1"/>
										</g>
									</g>
									<g>
										<g>
											
												<rect x="-524.924" y="-22.74" transform="matrix(0.8228 -0.5684 0.5684 0.8228 -32.2706 -147.9762)" style="fill:#734B02;" width="543.001" height="1"/>
										</g>
										<g>
											
												<rect x="-519.241" y="-14.512" transform="matrix(0.8228 -0.5684 0.5684 0.8228 -35.9439 -143.2941)" style="fill:#734B02;" width="543" height="1"/>
										</g>
									</g>
								</g>
							</g>
							<g>
								<g>
									<g>
										<g>
											
												<rect x="-513.56" y="-6.282" transform="matrix(0.8227 -0.5684 0.5684 0.8227 -39.6216 -138.6173)" style="fill:#734B02;" width="543.002" height="1"/>
										</g>
										<g>
											
												<rect x="-507.878" y="1.946" transform="matrix(0.823 -0.568 0.568 0.823 -43.2166 -133.8227)" style="fill:#734B02;" width="543.001" height="1"/>
										</g>
									</g>
									<g>
										<g>
											
												<rect x="-502.196" y="10.175" transform="matrix(0.823 -0.568 0.568 0.823 -46.8964 -129.1549)" style="fill:#734B02;" width="543" height="1"/>
										</g>
										<g>
											
												<rect x="-496.514" y="18.405" transform="matrix(0.8228 -0.5684 0.5684 0.8228 -50.6246 -124.5421)" style="fill:#734B02;" width="543.001" height="1"/>
										</g>
									</g>
								</g>
								<g>
									<g>
										<g>
											
												<rect x="-490.831" y="26.633" transform="matrix(0.823 -0.568 0.568 0.823 -54.234 -119.7865)" style="fill:#734B02;" width="543" height="1"/>
										</g>
										<g>
											
												<rect x="-485.15" y="34.863" transform="matrix(0.8228 -0.5683 0.5683 0.8228 -57.9524 -115.1532)" style="fill:#734B02;" width="543.002" height="1"/>
										</g>
									</g>
									<g>
										<g>
											
												<rect x="-479.468" y="43.091" transform="matrix(0.823 -0.568 0.568 0.823 -61.5714 -110.4183)" style="fill:#734B02;" width="543.001" height="1"/>
										</g>
										<g>
											
												<rect x="-473.786" y="51.32" transform="matrix(0.8228 -0.5684 0.5684 0.8228 -65.3007 -105.7873)" style="fill:#734B02;" width="543" height="1"/>
										</g>
									</g>
								</g>
							</g>
						</g>
						<g>
							<g>
								<g>
									<g>
										<g>
											
												<rect x="-468.104" y="59.549" transform="matrix(0.823 -0.568 0.568 0.823 -68.9088 -101.0499)" style="fill:#734B02;" width="543.001" height="1"/>
										</g>
										<g>
											
												<rect x="-462.422" y="67.778" transform="matrix(0.8228 -0.5684 0.5684 0.8228 -72.6449 -96.4146)" style="fill:#734B02;" width="543" height="1"/>
										</g>
									</g>
									<g>
										<g>
											
												<rect x="-456.74" y="76.006" transform="matrix(0.823 -0.568 0.568 0.823 -76.2414 -91.6795)" style="fill:#734B02;" width="543" height="1"/>
										</g>
										<g>
											
												<rect x="-451.058" y="84.236" transform="matrix(0.8227 -0.5684 0.5684 0.8227 -79.995 -87.0445)" style="fill:#734B02;" width="543.001" height="1"/>
										</g>
									</g>
								</g>
								<g>
									<g>
										<g>
											
												<rect x="-445.376" y="92.464" transform="matrix(0.823 -0.5681 0.5681 0.823 -83.5931 -82.319)" style="fill:#734B02;" width="543" height="1"/>
										</g>
										<g>
											
												<rect x="-439.694" y="100.694" transform="matrix(0.8229 -0.5681 0.5681 0.8229 -87.2705 -77.6376)" style="fill:#734B02;" width="543.001" height="1"/>
										</g>
									</g>
									<g>
										<g>
											
												<rect x="-434.012" y="108.922" transform="matrix(0.8229 -0.5683 0.5683 0.8229 -90.9676 -72.9639)" style="fill:#734B02;" width="543" height="1"/>
										</g>
										<g>
											
												<rect x="-428.33" y="117.151" transform="matrix(0.8231 -0.5679 0.5679 0.8231 -94.5467 -68.2477)" style="fill:#734B02;" width="542.999" height="1"/>
										</g>
									</g>
								</g>
							</g>
							<g>
								<g>
									<g>
										<g>
											
												<rect x="-422.649" y="125.381" transform="matrix(0.8229 -0.5683 0.5683 0.8229 -98.3071 -63.5912)" style="fill:#734B02;" width="543.001" height="1"/>
										</g>
										<g>
											
												<rect x="-416.966" y="133.609" transform="matrix(0.8229 -0.5682 0.5682 0.8229 -101.9656 -58.9021)" style="fill:#734B02;" width="542.999" height="1"/>
										</g>
									</g>
									<g>
										<g>
											
												<rect x="-411.285" y="141.839" transform="matrix(0.8231 -0.5679 0.5679 0.8231 -105.5507 -54.2013)" style="fill:#734B02;" width="543.002" height="1"/>
										</g>
										<g>
											
												<rect x="-405.603" y="150.067" transform="matrix(0.8227 -0.5685 0.5685 0.8227 -109.3867 -49.5406)" style="fill:#734B02;" width="543.001" height="1"/>
										</g>
									</g>
								</g>
								<g>
									<g>
										<g>
											
												<rect x="-399.92" y="158.296" transform="matrix(0.8227 -0.5685 0.5685 0.8227 -113.0574 -44.8508)" style="fill:#734B02;" width="542.999" height="1"/>
										</g>
										<g>
											
												<rect x="-394.239" y="166.525" transform="matrix(0.8229 -0.5682 0.5682 0.8229 -116.6397 -40.1581)" style="fill:#734B02;" width="543.001" height="1"/>
										</g>
									</g>
									<g>
										<g>
											
												<rect x="-388.556" y="174.754" transform="matrix(0.8229 -0.5681 0.5681 0.8229 -120.2966 -35.4724)" style="fill:#734B02;" width="543" height="1"/>
										</g>
										<g>
											
												<rect x="-382.874" y="182.982" transform="matrix(0.8228 -0.5683 0.5683 0.8228 -123.9992 -30.7856)" style="fill:#734B02;" width="542.999" height="1"/>
										</g>
									</g>
								</g>
							</g>
						</g>
						<g>
							<g>
								<g>
									<g>
										<g>
											
												<rect x="-377.761" y="190.388" transform="matrix(0.8229 -0.5682 0.5682 0.8229 -127.2836 -26.5697)" style="fill:#734B02;" width="542.999" height="1"/>
										</g>
										<g>
											
												<rect x="-372.081" y="198.617" transform="matrix(0.8229 -0.5682 0.5682 0.8229 -130.9492 -21.8842)" style="fill:#734B02;" width="543.002" height="1"/>
										</g>
									</g>
									<g>
										<g>
											
												<rect x="-366.399" y="206.846" transform="matrix(0.8229 -0.5682 0.5682 0.8229 -134.6224 -17.1981)" style="fill:#734B02;" width="543.001" height="1"/>
										</g>
										<g>
											
												<rect x="-360.716" y="215.074" transform="matrix(0.8227 -0.5685 0.5685 0.8227 -138.3855 -12.4917)" style="fill:#734B02;" width="542.999" height="1"/>
										</g>
									</g>
								</g>
								<g>
									<g>
										<g>
											
												<rect x="-355.035" y="223.304" transform="matrix(0.8232 -0.5678 0.5678 0.8232 -141.8488 -7.8543)" style="fill:#734B02;" width="543.001" height="1"/>
										</g>
										<g>
											
												<rect x="-349.351" y="231.532" transform="matrix(0.8226 -0.5686 0.5686 0.8226 -145.7466 -3.1063)" style="fill:#734B02;" width="542.999" height="1"/>
										</g>
									</g>
									<g>
										<g>
											
												<rect x="-343.671" y="239.761" transform="matrix(0.8232 -0.5678 0.5678 0.8232 -149.1841 1.5082)" style="fill:#734B02;" width="543" height="1"/>
										</g>
										<g>
											
												<rect x="-337.989" y="247.99" transform="matrix(0.8226 -0.5687 0.5687 0.8226 -153.1026 6.2794)" style="fill:#734B02;" width="543.001" height="1"/>
										</g>
									</g>
								</g>
							</g>
							<g>
								<g>
									<g>
										<g>
											
												<rect x="-332.306" y="256.219" transform="matrix(0.8226 -0.5687 0.5687 0.8226 -156.7738 10.9706)" style="fill:#734B02;" width="542.999" height="1"/>
										</g>
										<g>
											
												<rect x="-326.625" y="264.448" transform="matrix(0.8229 -0.5682 0.5682 0.8229 -160.3039 15.6022)" style="fill:#734B02;" width="543.001" height="1"/>
										</g>
									</g>
									<g>
										<g>
											
												<rect x="-320.942" y="272.677" transform="matrix(0.8229 -0.5682 0.5682 0.8229 -163.9728 20.2879)" style="fill:#734B02;" width="543" height="1"/>
										</g>
										<g>
											
												<rect x="-315.261" y="280.905" transform="matrix(0.8229 -0.5682 0.5682 0.8229 -167.6465 24.9754)" style="fill:#734B02;" width="543" height="1"/>
										</g>
									</g>
								</g>
								<g>
									<g>
										<g>
											
												<rect x="-309.58" y="289.135" transform="matrix(0.8231 -0.5679 0.5679 0.8231 -171.2048 29.6045)" style="fill:#734B02;" width="543.002" height="1"/>
										</g>
										<g>
											
												<rect x="-303.896" y="297.364" transform="matrix(0.8231 -0.5679 0.5679 0.8231 -174.8725 34.2865)" style="fill:#734B02;" width="543" height="1"/>
										</g>
									</g>
									<g>
										<g>
											
												<rect x="-298.214" y="305.593" transform="matrix(0.8226 -0.5687 0.5687 0.8226 -178.802 39.118)" style="fill:#734B02;" width="543.001" height="1"/>
										</g>
										<g>
											
												<rect x="-292.532" y="313.822" transform="matrix(0.8232 -0.5678 0.5678 0.8232 -182.1861 43.6374)" style="fill:#734B02;" width="542.999" height="1"/>
										</g>
									</g>
								</g>
							</g>
						</g>
					</g>
				</g>
			</g>
			<g>
				<path style="fill:#D97904;" d="M775.919,284.408c-5.03,12.362-19.128,18.306-31.491,13.274
					c-12.362-5.03-18.307-19.13-13.275-31.492c5.03-12.362,19.131-18.305,31.493-13.274
					C775.009,257.947,780.95,272.046,775.919,284.408z"/>
				<g>
					<defs>
						<path id="SVGID_00000122714989709738741900000018296840322073989761_" d="M796.673,332.583
							c-8.142,20.006-30.96,29.624-50.966,21.482c-20.007-8.142-29.625-30.96-21.483-50.966
							c8.142-20.007,30.96-29.625,50.967-21.483C795.196,289.758,804.814,312.576,796.673,332.583z"/>
					</defs>
					<clipPath id="SVGID_00000078744593838385604320000015824489530587283883_">
						<use xlink:href="#SVGID_00000122714989709738741900000018296840322073989761_"  style="overflow:visible;"/>
					</clipPath>
					<g style="clip-path:url(#SVGID_00000078744593838385604320000015824489530587283883_);">
						<g>
							<g>
								<g>
									<g>
										<g>
											
												<rect x="259.876" y="56.249" transform="matrix(0.9214 -0.3887 0.3887 0.9214 19.7243 210.9994)" style="fill:#734B02;" width="543.001" height="1"/>
										</g>
										<g>
											
												<rect x="263.761" y="65.464" transform="matrix(0.9214 -0.3887 0.3887 0.9214 16.4485 213.2359)" style="fill:#734B02;" width="543.001" height="1"/>
										</g>
									</g>
									<g>
										<g>
											
												<rect x="267.645" y="74.678" transform="matrix(0.9215 -0.3883 0.3883 0.9215 13.1079 215.2276)" style="fill:#734B02;" width="543" height="1"/>
										</g>
										<g>
											
												<rect x="271.529" y="83.894" transform="matrix(0.9213 -0.3888 0.3888 0.9213 9.9094 217.7591)" style="fill:#734B02;" width="543.001" height="1"/>
										</g>
									</g>
								</g>
								<g>
									<g>
										<g>
											
												<rect x="275.413" y="93.108" transform="matrix(0.9214 -0.3887 0.3887 0.9214 6.6198 219.9387)" style="fill:#734B02;" width="543.001" height="1"/>
										</g>
										<g>
											
												<rect x="279.298" y="102.322" transform="matrix(0.9216 -0.3881 0.3881 0.9216 3.2656 221.8144)" style="fill:#734B02;" width="542.999" height="1"/>
										</g>
									</g>
									<g>
										<g>
											
												<rect x="283.181" y="111.538" transform="matrix(0.9214 -0.3887 0.3887 0.9214 0.0671 224.4073)" style="fill:#734B02;" width="543.001" height="1"/>
										</g>
										<g>
											
												<rect x="287.066" y="120.752" transform="matrix(0.9214 -0.3886 0.3886 0.9214 -3.2192 226.5874)" style="fill:#734B02;" width="543" height="1"/>
										</g>
									</g>
								</g>
							</g>
							<g>
								<g>
									<g>
										<g>
											
												<rect x="290.949" y="129.967" transform="matrix(0.9216 -0.3882 0.3882 0.9216 -6.5397 228.5613)" style="fill:#734B02;" width="543.002" height="1"/>
										</g>
										<g>
											
												<rect x="294.834" y="139.182" transform="matrix(0.9214 -0.3887 0.3887 0.9214 -9.7584 231.13)" style="fill:#734B02;" width="543.001" height="1"/>
										</g>
									</g>
									<g>
										<g>
											
												<rect x="298.718" y="148.396" transform="matrix(0.9214 -0.3885 0.3885 0.9214 -13.0537 233.2337)" style="fill:#734B02;" width="543" height="1"/>
										</g>
										<g>
											
												<rect x="302.602" y="157.612" transform="matrix(0.9215 -0.3884 0.3884 0.9215 -16.335 235.4215)" style="fill:#734B02;" width="543.001" height="1"/>
										</g>
									</g>
								</g>
								<g>
									<g>
										<g>
											
												<rect x="306.487" y="166.827" transform="matrix(0.9213 -0.3888 0.3888 0.9213 -19.5832 237.8741)" style="fill:#734B02;" width="543" height="1"/>
										</g>
										<g>
											
												<rect x="310.371" y="176.042" transform="matrix(0.9216 -0.3881 0.3881 0.9216 -22.9083 239.6516)" style="fill:#734B02;" width="543.002" height="1"/>
										</g>
									</g>
									<g>
										<g>
											
												<rect x="314.255" y="185.256" transform="matrix(0.9215 -0.3884 0.3884 0.9215 -26.1579 242.1185)" style="fill:#734B02;" width="543.001" height="1"/>
										</g>
										<g>
											
												<rect x="318.139" y="194.471" transform="matrix(0.9214 -0.3885 0.3885 0.9214 -29.4287 244.3955)" style="fill:#734B02;" width="543" height="1"/>
										</g>
									</g>
								</g>
							</g>
						</g>
						<g>
							<g>
								<g>
									<g>
										<g>
											
												<rect x="322.023" y="203.687" transform="matrix(0.9215 -0.3884 0.3884 0.9215 -32.707 246.5835)" style="fill:#734B02;" width="543.001" height="1"/>
										</g>
										<g>
											
												<rect x="325.908" y="212.9" transform="matrix(0.9215 -0.3884 0.3884 0.9215 -35.9843 248.7574)" style="fill:#734B02;" width="543" height="1"/>
										</g>
									</g>
									<g>
										<g>
											
												<rect x="329.792" y="222.115" transform="matrix(0.9213 -0.3888 0.3888 0.9213 -39.2448 251.2841)" style="fill:#734B02;" width="543" height="1"/>
										</g>
										<g>
											
												<rect x="333.676" y="231.33" transform="matrix(0.9216 -0.3881 0.3881 0.9216 -42.5383 253.0325)" style="fill:#734B02;" width="543.001" height="1"/>
										</g>
									</g>
								</g>
								<g>
									<g>
										<g>
											
												<rect x="337.561" y="240.545" transform="matrix(0.9216 -0.3881 0.3881 0.9216 -45.8094 255.284)" style="fill:#734B02;" width="543" height="1"/>
										</g>
										<g>
											
												<rect x="341.444" y="249.761" transform="matrix(0.9215 -0.3884 0.3884 0.9215 -49.0792 257.7454)" style="fill:#734B02;" width="543.001" height="1"/>
										</g>
									</g>
									<g>
										<g>
											
												<rect x="345.329" y="258.975" transform="matrix(0.9215 -0.3884 0.3884 0.9215 -52.3533 259.9778)" style="fill:#734B02;" width="543" height="1"/>
										</g>
										<g>
											
												<rect x="349.213" y="268.189" transform="matrix(0.9216 -0.3881 0.3881 0.9216 -55.625 261.9473)" style="fill:#734B02;" width="543" height="1"/>
										</g>
									</g>
								</g>
							</g>
							<g>
								<g>
									<g>
										<g>
											
												<rect x="353.096" y="277.405" transform="matrix(0.9215 -0.3884 0.3884 0.9215 -58.901 264.3792)" style="fill:#734B02;" width="543.002" height="1"/>
										</g>
										<g>
											
												<rect x="356.982" y="286.619" transform="matrix(0.9213 -0.3889 0.3889 0.9213 -62.1859 266.9933)" style="fill:#734B02;" width="543" height="1"/>
										</g>
									</g>
									<g>
										<g>
											
												<rect x="360.864" y="295.834" transform="matrix(0.9214 -0.3885 0.3885 0.9214 -65.4532 268.9619)" style="fill:#734B02;" width="543.002" height="1"/>
										</g>
										<g>
											
												<rect x="364.748" y="305.049" transform="matrix(0.9214 -0.3885 0.3885 0.9214 -68.7291 271.2177)" style="fill:#734B02;" width="543.001" height="1"/>
										</g>
									</g>
								</g>
								<g>
									<g>
										<g>
											
												<rect x="368.634" y="314.263" transform="matrix(0.9214 -0.3885 0.3885 0.9214 -72.0027 273.4234)" style="fill:#734B02;" width="543" height="1"/>
										</g>
										<g>
											
												<rect x="372.517" y="323.479" transform="matrix(0.9213 -0.3889 0.3889 0.9213 -75.2966 275.9358)" style="fill:#734B02;" width="543.001" height="1"/>
										</g>
									</g>
									<g>
										<g>
											
												<rect x="376.402" y="332.693" transform="matrix(0.9213 -0.3889 0.3889 0.9213 -78.574 278.1717)" style="fill:#734B02;" width="543" height="1"/>
										</g>
										<g>
											
												<rect x="380.286" y="341.908" transform="matrix(0.9213 -0.3889 0.3889 0.9213 -81.8514 280.4072)" style="fill:#734B02;" width="543" height="1"/>
										</g>
									</g>
								</g>
							</g>
						</g>
						<g>
							<g>
								<g>
									<g>
										<g>
											
												<rect x="383.781" y="350.2" transform="matrix(0.9214 -0.3885 0.3885 0.9214 -84.7749 282.1361)" style="fill:#734B02;" width="543" height="1"/>
										</g>
										<g>
											
												<rect x="387.664" y="359.415" transform="matrix(0.9214 -0.3885 0.3885 0.9214 -88.0523 284.3933)" style="fill:#734B02;" width="543.003" height="1"/>
										</g>
									</g>
									<g>
										<g>
											
												<rect x="391.548" y="368.629" transform="matrix(0.9213 -0.3889 0.3889 0.9213 -91.3561 286.8901)" style="fill:#734B02;" width="543.002" height="1"/>
										</g>
										<g>
											
												<rect x="395.434" y="377.844" transform="matrix(0.9213 -0.3889 0.3889 0.9213 -94.6337 289.1259)" style="fill:#734B02;" width="543" height="1"/>
										</g>
									</g>
								</g>
								<g>
									<g>
										<g>
											
												<rect x="399.317" y="387.06" transform="matrix(0.9213 -0.3888 0.3888 0.9213 -97.9028 291.2907)" style="fill:#734B02;" width="543.002" height="0.999"/>
										</g>
										<g>
											
												<rect x="403.202" y="396.274" transform="matrix(0.9214 -0.3885 0.3885 0.9214 -101.153 293.326)" style="fill:#734B02;" width="543" height="1"/>
										</g>
									</g>
									<g>
										<g>
											
												<rect x="407.085" y="405.489" transform="matrix(0.9214 -0.3885 0.3885 0.9214 -104.4232 295.5229)" style="fill:#734B02;" width="543.001" height="1"/>
										</g>
										<g>
											
												<rect x="410.969" y="414.704" transform="matrix(0.9214 -0.3885 0.3885 0.9214 -107.6989 297.7615)" style="fill:#734B02;" width="543.002" height="1"/>
										</g>
									</g>
								</g>
							</g>
							<g>
								<g>
									<g>
										<g>
											
												<rect x="414.855" y="423.919" transform="matrix(0.9213 -0.3889 0.3889 0.9213 -111.022 300.3044)" style="fill:#734B02;" width="543" height="1"/>
										</g>
										<g>
											
												<rect x="418.738" y="433.134" transform="matrix(0.9213 -0.3888 0.3888 0.9213 -114.2888 302.4718)" style="fill:#734B02;" width="543.002" height="1"/>
										</g>
									</g>
									<g>
										<g>
											
												<rect x="422.623" y="442.348" transform="matrix(0.9214 -0.3885 0.3885 0.9214 -117.5288 304.492)" style="fill:#734B02;" width="543" height="1"/>
										</g>
										<g>
											
												<rect x="426.507" y="451.562" transform="matrix(0.9214 -0.3885 0.3885 0.9214 -120.7983 306.6931)" style="fill:#734B02;" width="542.999" height="1"/>
										</g>
									</g>
								</g>
								<g>
									<g>
										<g>
											
												<rect x="430.39" y="460.778" transform="matrix(0.9218 -0.3877 0.3877 0.9218 -123.9387 308.1972)" style="fill:#734B02;" width="543.002" height="1"/>
										</g>
										<g>
											
												<rect x="434.276" y="469.993" transform="matrix(0.9213 -0.3889 0.3889 0.9213 -127.4101 311.4828)" style="fill:#734B02;" width="543" height="1"/>
										</g>
									</g>
									<g>
										<g>
											
												<rect x="438.16" y="479.208" transform="matrix(0.9214 -0.3885 0.3885 0.9214 -130.6233 313.3924)" style="fill:#734B02;" width="543.001" height="1"/>
										</g>
										<g>
											
												<rect x="442.044" y="488.424" transform="matrix(0.9213 -0.3889 0.3889 0.9213 -133.9644 315.9477)" style="fill:#734B02;" width="542.999" height="1"/>
										</g>
									</g>
								</g>
							</g>
						</g>
					</g>
				</g>
			</g>
			<g>
				<path style="fill:#FFE094;" d="M265.96,7.214c-10.732-7.936-12.998-23.065-5.062-33.798
					c7.936-10.731,23.067-12.998,33.799-5.062c10.732,7.936,12.997,23.068,5.061,33.799C291.821,12.885,276.691,15.15,265.96,7.214z
					"/>
				<g>
					<defs>
						<path id="SVGID_00000164493830883565187000000017293784087715390614_" d="M214.146,15.392
							c-17.367-12.843-21.034-37.333-8.192-54.699c12.843-17.368,37.332-21.035,54.699-8.192
							c17.368,12.843,21.035,37.332,8.192,54.699C256.002,24.567,231.513,28.234,214.146,15.392z"/>
					</defs>
					<clipPath id="SVGID_00000104684678781780036390000011530198763319860894_">
						<use xlink:href="#SVGID_00000164493830883565187000000017293784087715390614_"  style="overflow:visible;"/>
					</clipPath>
					<g style="clip-path:url(#SVGID_00000104684678781780036390000011530198763319860894_);">
						<g>
							<g>
								<g>
									<g>
										<g>
											
												<rect x="546.591" y="-444.829" transform="matrix(0.989 -0.1476 0.1476 0.989 31.5817 78.8649)" style="fill:#734B02;" width="0.999" height="543.001"/>
										</g>
										<g>
											
												<rect x="536.7" y="-443.347" transform="matrix(0.989 -0.148 0.148 0.989 31.3378 77.5896)" style="fill:#734B02;" width="1" height="543"/>
										</g>
									</g>
									<g>
										<g>
											
												<rect x="526.811" y="-441.866" transform="matrix(0.9889 -0.1484 0.1484 0.9889 31.111 76.3465)" style="fill:#734B02;" width="1" height="543"/>
										</g>
										<g>
											
												<rect x="516.921" y="-440.385" transform="matrix(0.989 -0.1481 0.1481 0.989 30.7299 74.7918)" style="fill:#734B02;" width="0.999" height="543.001"/>
										</g>
									</g>
								</g>
								<g>
									<g>
										<g>
											
												<rect x="507.033" y="-438.904" transform="matrix(0.989 -0.1482 0.1482 0.989 30.4216 73.3834)" style="fill:#734B02;" width="0.998" height="543.001"/>
										</g>
										<g>
											
												<rect x="497.142" y="-437.422" transform="matrix(0.989 -0.1481 0.1481 0.989 30.0611 71.8714)" style="fill:#734B02;" width="1" height="543"/>
										</g>
									</g>
									<g>
										<g>
											
												<rect x="487.252" y="-435.942" transform="matrix(0.989 -0.1481 0.1481 0.989 29.7326 70.423)" style="fill:#734B02;" width="1" height="543.001"/>
										</g>
										<g>
											
												<rect x="477.363" y="-434.461" transform="matrix(0.9891 -0.1474 0.1474 0.9891 29.2349 68.647)" style="fill:#734B02;" width="1" height="543.001"/>
										</g>
									</g>
								</g>
							</g>
							<g>
								<g>
									<g>
										<g>
											
												<rect x="467.472" y="-432.98" transform="matrix(0.989 -0.148 0.148 0.989 29.0419 67.4613)" style="fill:#734B02;" width="1" height="543.002"/>
										</g>
										<g>
											
												<rect x="457.582" y="-431.499" transform="matrix(0.989 -0.1479 0.1479 0.989 28.6953 65.9787)" style="fill:#734B02;" width="1" height="543"/>
										</g>
									</g>
									<g>
										<g>
											
												<rect x="447.694" y="-430.017" transform="matrix(0.9889 -0.1485 0.1485 0.9889 28.4996 64.7813)" style="fill:#734B02;" width="1" height="543"/>
										</g>
										<g>
											
												<rect x="437.802" y="-428.537" transform="matrix(0.9889 -0.1484 0.1484 0.9889 28.1484 63.2887)" style="fill:#734B02;" width="1" height="543"/>
										</g>
									</g>
								</g>
								<g>
									<g>
										<g>
											
												<rect x="427.914" y="-427.055" transform="matrix(0.989 -0.1481 0.1481 0.989 27.7624 61.7333)" style="fill:#734B02;" width="0.999" height="543"/>
										</g>
										<g>
											
												<rect x="418.023" y="-425.575" transform="matrix(0.9889 -0.1485 0.1485 0.9889 27.5112 60.4257)" style="fill:#734B02;" width="1" height="543.003"/>
										</g>
									</g>
									<g>
										<g>
											
												<rect x="408.134" y="-424.094" transform="matrix(0.989 -0.148 0.148 0.989 27.0845 58.7985)" style="fill:#734B02;" width="1" height="543.001"/>
										</g>
										<g>
											
												<rect x="398.245" y="-422.612" transform="matrix(0.9891 -0.1475 0.1475 0.9891 26.6587 57.1767)" style="fill:#734B02;" width="1" height="542.999"/>
										</g>
									</g>
								</g>
							</g>
						</g>
						<g>
							<g>
								<g>
									<g>
										<g>
											
												<rect x="388.354" y="-421.132" transform="matrix(0.989 -0.148 0.148 0.989 26.4283 55.9036)" style="fill:#734B02;" width="0.999" height="543.001"/>
										</g>
										<g>
											
												<rect x="378.465" y="-419.65" transform="matrix(0.9889 -0.1486 0.1486 0.9889 26.2255 54.6744)" style="fill:#734B02;" width="1" height="543.001"/>
										</g>
									</g>
									<g>
										<g>
											
												<rect x="368.576" y="-418.169" transform="matrix(0.9889 -0.1484 0.1484 0.9889 25.8433 53.1315)" style="fill:#734B02;" width="1.001" height="543.001"/>
										</g>
										<g>
											
												<rect x="358.685" y="-416.689" transform="matrix(0.9889 -0.1485 0.1485 0.9889 25.5347 51.7152)" style="fill:#734B02;" width="1" height="543.001"/>
										</g>
									</g>
								</g>
								<g>
									<g>
										<g>
											
												<rect x="348.796" y="-415.207" transform="matrix(0.989 -0.1479 0.1479 0.989 25.0871 50.0662)" style="fill:#734B02;" width="1" height="543.001"/>
										</g>
										<g>
											
												<rect x="338.905" y="-413.726" transform="matrix(0.9889 -0.1484 0.1484 0.9889 24.8728 48.8066)" style="fill:#734B02;" width="1" height="543"/>
										</g>
									</g>
									<g>
										<g>
											
												<rect x="329.016" y="-412.245" transform="matrix(0.9891 -0.1474 0.1474 0.9891 24.3389 47.0233)" style="fill:#734B02;" width="1" height="543"/>
										</g>
										<g>
											
												<rect x="319.128" y="-410.764" transform="matrix(0.989 -0.1481 0.1481 0.989 24.1526 45.8057)" style="fill:#734B02;" width="1" height="543"/>
										</g>
									</g>
								</g>
							</g>
							<g>
								<g>
									<g>
										<g>
											
												<rect x="309.237" y="-409.284" transform="matrix(0.989 -0.1479 0.1479 0.989 23.781 44.2894)" style="fill:#734B02;" width="1" height="543.002"/>
										</g>
										<g>
											
												<rect x="299.347" y="-407.802" transform="matrix(0.989 -0.148 0.148 0.989 23.4753 42.8771)" style="fill:#734B02;" width="1" height="543"/>
										</g>
									</g>
									<g>
										<g>
											
												<rect x="289.457" y="-406.322" transform="matrix(0.9889 -0.1485 0.1485 0.9889 23.2414 41.5724)" style="fill:#734B02;" width="1" height="543.004"/>
										</g>
										<g>
											
												<rect x="279.568" y="-404.841" transform="matrix(0.9889 -0.1485 0.1485 0.9889 22.9049 40.1097)" style="fill:#734B02;" width="1" height="543.002"/>
										</g>
									</g>
								</g>
								<g>
									<g>
										<g>
											
												<rect x="269.678" y="-403.358" transform="matrix(0.9891 -0.1475 0.1475 0.9891 22.4 38.4028)" style="fill:#734B02;" width="1" height="543"/>
										</g>
										<g>
											
												<rect x="259.788" y="-401.878" transform="matrix(0.9889 -0.1483 0.1483 0.9889 22.2208 37.17)" style="fill:#734B02;" width="1" height="543.002"/>
										</g>
									</g>
									<g>
										<g>
											
												<rect x="249.898" y="-400.396" transform="matrix(0.989 -0.148 0.148 0.989 21.829 35.6323)" style="fill:#734B02;" width="1" height="543.001"/>
										</g>
										<g>
											
												<rect x="240.01" y="-398.915" transform="matrix(0.989 -0.148 0.148 0.989 21.5066 34.193)" style="fill:#734B02;" width="1" height="543"/>
										</g>
									</g>
								</g>
							</g>
						</g>
						<g>
							<g>
								<g>
									<g>
										<g>
											
												<rect x="231.111" y="-397.583" transform="matrix(0.989 -0.1476 0.1476 0.989 21.1484 32.8071)" style="fill:#734B02;" width="0.999" height="543"/>
										</g>
										<g>
											
												<rect x="221.22" y="-396.103" transform="matrix(0.9889 -0.1483 0.1483 0.9889 20.9372 31.5125)" style="fill:#734B02;" width="1" height="543.003"/>
										</g>
									</g>
									<g>
										<g>
											
												<rect x="211.331" y="-394.622" transform="matrix(0.989 -0.148 0.148 0.989 20.5612 30.0032)" style="fill:#734B02;" width="1" height="543.002"/>
										</g>
										<g>
											
												<rect x="201.442" y="-393.14" transform="matrix(0.989 -0.1479 0.1479 0.989 20.2158 28.5349)" style="fill:#734B02;" width="1" height="543.001"/>
										</g>
									</g>
								</g>
								<g>
									<g>
										<g>
											
												<rect x="191.551" y="-391.659" transform="matrix(0.989 -0.148 0.148 0.989 19.9026 27.105)" style="fill:#734B02;" width="1" height="543.001"/>
										</g>
										<g>
											
												<rect x="181.661" y="-390.177" transform="matrix(0.9889 -0.1484 0.1484 0.9889 19.6228 25.7121)" style="fill:#734B02;" width="1" height="543.001"/>
										</g>
									</g>
									<g>
										<g>
											
												<rect x="171.773" y="-388.698" transform="matrix(0.989 -0.148 0.148 0.989 19.2431 24.2065)" style="fill:#734B02;" width="0.999" height="543.002"/>
										</g>
										<g>
											
												<rect x="161.882" y="-387.217" transform="matrix(0.9889 -0.1485 0.1485 0.9889 18.9773 22.8235)" style="fill:#734B02;" width="1" height="543.002"/>
										</g>
									</g>
								</g>
							</g>
							<g>
								<g>
									<g>
										<g>
											
												<rect x="151.993" y="-385.734" transform="matrix(0.9891 -0.1475 0.1475 0.9891 18.5114 21.2372)" style="fill:#734B02;" width="1" height="543"/>
										</g>
										<g>
											
												<rect x="142.102" y="-384.254" transform="matrix(0.9889 -0.1485 0.1485 0.9889 18.3206 19.9221)" style="fill:#734B02;" width="1" height="543.001"/>
										</g>
									</g>
									<g>
										<g>
											
												<rect x="132.213" y="-382.772" transform="matrix(0.989 -0.1476 0.1476 0.989 17.8788 18.3709)" style="fill:#734B02;" width="1" height="543"/>
										</g>
										<g>
											
												<rect x="122.324" y="-381.291" transform="matrix(0.9889 -0.1485 0.1485 0.9889 17.6648 17.0212)" style="fill:#734B02;" width="1" height="543"/>
										</g>
									</g>
								</g>
								<g>
									<g>
										<g>
											
												<rect x="112.433" y="-379.811" transform="matrix(0.9891 -0.1475 0.1475 0.9891 17.2127 15.4742)" style="fill:#734B02;" width="1" height="543.002"/>
										</g>
										<g>
											
												<rect x="102.544" y="-378.329" transform="matrix(0.9889 -0.1483 0.1483 0.9889 16.9805 14.099)" style="fill:#734B02;" width="1" height="543"/>
										</g>
									</g>
									<g>
										<g>
											
												<rect x="92.653" y="-376.848" transform="matrix(0.9889 -0.1484 0.1484 0.9889 16.6602 12.6544)" style="fill:#734B02;" width="1" height="543.001"/>
										</g>
										<g>
											
												<rect x="82.764" y="-375.366" transform="matrix(0.989 -0.148 0.148 0.989 16.2839 11.1761)" style="fill:#734B02;" width="1" height="542.999"/>
										</g>
									</g>
								</g>
							</g>
						</g>
					</g>
				</g>
			</g>
			<g>
				<path style="fill:#EF8007;" d="M407.264,475.44c20.832,5.707,33.094,27.221,27.387,48.053
					c-5.707,20.832-27.221,33.094-48.053,27.387c-20.832-5.707-33.093-27.221-27.387-48.053
					C364.917,481.994,386.432,469.732,407.264,475.44z"/>
				<g>
					<defs>
						<path id="SVGID_00000073694351200972261810000003144626468690675079_" d="M438.344,473.861
							c20.832,5.707,33.096,27.221,27.389,48.053c-5.707,20.832-27.221,33.094-48.055,27.387
							c-20.832-5.707-33.094-27.221-27.387-48.053C396,480.416,417.514,468.154,438.344,473.861z"/>
					</defs>
					<clipPath id="SVGID_00000123429972776224090600000017184482468690100378_">
						<use xlink:href="#SVGID_00000073694351200972261810000003144626468690675079_"  style="overflow:visible;"/>
					</clipPath>
					<g style="clip-path:url(#SVGID_00000123429972776224090600000017184482468690100378_);">
						<g>
							<g>
								<g>
									<g>
										<g>
											
												<rect x="195.486" y="498.552" transform="matrix(0.8691 -0.4947 0.4947 0.8691 -355.2775 197.7763)" style="fill:#734B02;" width="0.999" height="543"/>
										</g>
										<g>
											
												<rect x="204.174" y="493.6" transform="matrix(0.8695 -0.494 0.494 0.8695 -351.2523 200.994)" style="fill:#734B02;" width="1" height="543.001"/>
										</g>
									</g>
									<g>
										<g>
											
												<rect x="212.861" y="488.649" transform="matrix(0.8693 -0.4942 0.4942 0.8693 -347.808 204.7764)" style="fill:#734B02;" width="1" height="543"/>
										</g>
										<g>
											
												<rect x="221.55" y="483.696" transform="matrix(0.8682 -0.4961 0.4961 0.8682 -345.4189 209.6629)" style="fill:#734B02;" width="1" height="543.001"/>
										</g>
									</g>
								</g>
								<g>
									<g>
										<g>
											
												<rect x="230.238" y="478.745" transform="matrix(0.8683 -0.4961 0.4961 0.8683 -341.8163 213.3192)" style="fill:#734B02;" width="1" height="543.001"/>
										</g>
										<g>
											
												<rect x="238.925" y="473.795" transform="matrix(0.8691 -0.4947 0.4947 0.8691 -337.3439 216.0254)" style="fill:#734B02;" width="1" height="542.999"/>
										</g>
									</g>
									<g>
										<g>
											
												<rect x="247.614" y="468.842" transform="matrix(0.8693 -0.4942 0.4942 0.8693 -333.4794 219.3659)" style="fill:#734B02;" width="1" height="543"/>
										</g>
										<g>
											
												<rect x="256.302" y="463.892" transform="matrix(0.8693 -0.4942 0.4942 0.8693 -329.8972 223.0127)" style="fill:#734B02;" width="1" height="543"/>
										</g>
									</g>
								</g>
							</g>
							<g>
								<g>
									<g>
										<g>
											
												<rect x="264.99" y="458.937" transform="matrix(0.8693 -0.4943 0.4943 0.8693 -326.3331 226.6818)" style="fill:#734B02;" width="1.001" height="543.003"/>
										</g>
										<g>
											
												<rect x="273.678" y="453.987" transform="matrix(0.8685 -0.4957 0.4957 0.8685 -323.5667 231.3147)" style="fill:#734B02;" width="1" height="543.001"/>
										</g>
									</g>
									<g>
										<g>
											
												<rect x="282.366" y="449.037" transform="matrix(0.8688 -0.4951 0.4951 0.8688 -319.6496 234.5721)" style="fill:#734B02;" width="0.999" height="542.999"/>
										</g>
										<g>
											
												<rect x="291.054" y="444.084" transform="matrix(0.8685 -0.4956 0.4956 0.8685 -316.3317 238.5728)" style="fill:#734B02;" width="1" height="543.001"/>
										</g>
									</g>
								</g>
								<g>
									<g>
										<g>
											
												<rect x="299.742" y="439.134" transform="matrix(0.8685 -0.4957 0.4957 0.8685 -312.776 242.2809)" style="fill:#734B02;" width="1" height="542.998"/>
										</g>
										<g>
											
												<rect x="308.43" y="434.18" transform="matrix(0.869 -0.4948 0.4948 0.869 -308.7064 245.3026)" style="fill:#734B02;" width="1.001" height="543.002"/>
										</g>
									</g>
									<g>
										<g>
											
												<rect x="317.119" y="429.23" transform="matrix(0.868 -0.4966 0.4966 0.868 -306.0292 250.2109)" style="fill:#734B02;" width="0.999" height="543.001"/>
										</g>
										<g>
											
												<rect x="325.806" y="424.279" transform="matrix(0.8685 -0.4957 0.4957 0.8685 -302.0072 253.2786)" style="fill:#734B02;" width="1" height="543"/>
										</g>
									</g>
								</g>
							</g>
						</g>
						<g>
							<g>
								<g>
									<g>
										<g>
											
												<rect x="334.495" y="419.326" transform="matrix(0.8685 -0.4957 0.4957 0.8685 -298.388 256.9034)" style="fill:#734B02;" width="1.001" height="543.001"/>
										</g>
										<g>
											
												<rect x="343.182" y="414.376" transform="matrix(0.8685 -0.4957 0.4957 0.8685 -294.791 260.5585)" style="fill:#734B02;" width="1" height="542.999"/>
										</g>
									</g>
									<g>
										<g>
											
												<rect x="351.87" y="409.425" transform="matrix(0.8685 -0.4957 0.4957 0.8685 -291.1944 264.2139)" style="fill:#734B02;" width="1" height="542.998"/>
										</g>
										<g>
											
												<rect x="360.559" y="404.472" transform="matrix(0.8685 -0.4957 0.4957 0.8685 -287.6172 267.902)" style="fill:#734B02;" width="1" height="543"/>
										</g>
									</g>
								</g>
								<g>
									<g>
										<g>
											
												<rect x="369.247" y="399.522" transform="matrix(0.868 -0.4966 0.4966 0.868 -284.3965 272.174)" style="fill:#734B02;" width="1" height="542.999"/>
										</g>
										<g>
											
												<rect x="377.936" y="394.569" transform="matrix(0.8688 -0.4951 0.4951 0.8688 -280.1447 274.7462)" style="fill:#734B02;" width="0.999" height="543"/>
										</g>
									</g>
									<g>
										<g>
											
												<rect x="386.623" y="389.618" transform="matrix(0.868 -0.4966 0.4966 0.868 -277.1868 279.4984)" style="fill:#734B02;" width="1" height="543"/>
										</g>
										<g>
											
												<rect x="395.31" y="384.668" transform="matrix(0.8685 -0.4957 0.4957 0.8685 -273.2279 282.5244)" style="fill:#734B02;" width="1" height="542.998"/>
										</g>
									</g>
								</g>
							</g>
							<g>
								<g>
									<g>
										<g>
											
												<rect x="403.999" y="379.715" transform="matrix(0.8685 -0.4957 0.4957 0.8685 -269.6145 286.1508)" style="fill:#734B02;" width="1.001" height="543.001"/>
										</g>
										<g>
											
												<rect x="412.687" y="374.764" transform="matrix(0.8694 -0.4942 0.4942 0.8694 -265.3948 288.6231)" style="fill:#734B02;" width="1" height="542.998"/>
										</g>
									</g>
									<g>
										<g>
											
												<rect x="421.375" y="369.81" transform="matrix(0.8693 -0.4942 0.4942 0.8693 -261.832 292.3073)" style="fill:#734B02;" width="1" height="543.003"/>
										</g>
										<g>
											
												<rect x="430.063" y="364.86" transform="matrix(0.8685 -0.4957 0.4957 0.8685 -258.8386 297.1481)" style="fill:#734B02;" width="1" height="543.003"/>
										</g>
									</g>
								</g>
								<g>
									<g>
										<g>
											
												<rect x="438.751" y="359.909" transform="matrix(0.8693 -0.4942 0.4942 0.8693 -254.6672 299.6013)" style="fill:#734B02;" width="1" height="543"/>
										</g>
										<g>
											
												<rect x="447.44" y="354.957" transform="matrix(0.868 -0.4966 0.4966 0.868 -251.9626 305.154)" style="fill:#734B02;" width="0.999" height="543.002"/>
										</g>
									</g>
									<g>
										<g>
											
												<rect x="456.127" y="350.006" transform="matrix(0.8685 -0.4957 0.4957 0.8685 -248.0477 308.1192)" style="fill:#734B02;" width="1" height="543"/>
										</g>
										<g>
											
												<rect x="464.815" y="345.055" transform="matrix(0.868 -0.4966 0.4966 0.868 -244.751 312.4751)" style="fill:#734B02;" width="0.999" height="542.999"/>
										</g>
									</g>
								</g>
							</g>
						</g>
						<g>
							<g>
								<g>
									<g>
										<g>
											
												<rect x="472.633" y="340.6" transform="matrix(0.8688 -0.4951 0.4951 0.8688 -240.9988 314.5492)" style="fill:#734B02;" width="0.999" height="542.999"/>
										</g>
										<g>
											
												<rect x="481.321" y="335.646" transform="matrix(0.8698 -0.4934 0.4934 0.8698 -236.8257 316.7574)" style="fill:#734B02;" width="1.001" height="543.003"/>
										</g>
									</g>
									<g>
										<g>
											
												<rect x="490.01" y="330.696" transform="matrix(0.8688 -0.4951 0.4951 0.8688 -233.8165 321.8536)" style="fill:#734B02;" width="0.999" height="543.003"/>
										</g>
										<g>
											
												<rect x="498.697" y="325.745" transform="matrix(0.8685 -0.4956 0.4956 0.8685 -230.3824 325.928)" style="fill:#734B02;" width="1" height="542.998"/>
										</g>
									</g>
								</g>
								<g>
									<g>
										<g>
											
												<rect x="507.386" y="320.792" transform="matrix(0.8685 -0.4957 0.4957 0.8685 -226.8221 329.6837)" style="fill:#734B02;" width="1" height="543.002"/>
										</g>
										<g>
											
												<rect x="516.073" y="315.841" transform="matrix(0.8693 -0.4943 0.4943 0.8693 -222.8041 332.1184)" style="fill:#734B02;" width="1" height="542.999"/>
										</g>
									</g>
									<g>
										<g>
											
												<rect x="524.762" y="310.89" transform="matrix(0.8694 -0.4942 0.4942 0.8694 -219.1879 335.6646)" style="fill:#734B02;" width="1" height="543.002"/>
										</g>
										<g>
											
												<rect x="533.45" y="305.938" transform="matrix(0.8688 -0.4951 0.4951 0.8688 -215.8617 340.1188)" style="fill:#734B02;" width="0.999" height="543.002"/>
										</g>
									</g>
								</g>
							</g>
							<g>
								<g>
									<g>
										<g>
											
												<rect x="542.137" y="300.987" transform="matrix(0.8685 -0.4957 0.4957 0.8685 -212.4208 344.269)" style="fill:#734B02;" width="1.001" height="542.999"/>
										</g>
										<g>
											
												<rect x="550.827" y="296.034" transform="matrix(0.8685 -0.4957 0.4957 0.8685 -208.8349 347.9627)" style="fill:#734B02;" width="0.999" height="543.003"/>
										</g>
									</g>
									<g>
										<g>
											
												<rect x="559.514" y="291.083" transform="matrix(0.8689 -0.495 0.495 0.8689 -205.0689 351.0081)" style="fill:#734B02;" width="0.999" height="543"/>
										</g>
										<g>
											
												<rect x="568.202" y="286.133" transform="matrix(0.8688 -0.4951 0.4951 0.8688 -201.4963 354.7271)" style="fill:#734B02;" width="0.999" height="542.998"/>
										</g>
									</g>
								</g>
								<g>
									<g>
										<g>
											
												<rect x="576.891" y="281.18" transform="matrix(0.8689 -0.495 0.495 0.8689 -197.8883 358.312)" style="fill:#734B02;" width="0.999" height="543.002"/>
										</g>
										<g>
											
												<rect x="585.578" y="276.23" transform="matrix(0.8689 -0.495 0.495 0.8689 -194.2843 361.9074)" style="fill:#734B02;" width="0.999" height="542.998"/>
										</g>
									</g>
									<g>
										<g>
											
												<rect x="594.267" y="271.276" transform="matrix(0.8694 -0.4942 0.4942 0.8694 -190.5302 364.8376)" style="fill:#734B02;" width="1" height="543"/>
										</g>
										<g>
											
												<rect x="602.954" y="266.327" transform="matrix(0.8689 -0.4949 0.4949 0.8689 -187.0959 369.1711)" style="fill:#734B02;" width="1" height="542.999"/>
										</g>
									</g>
								</g>
							</g>
						</g>
					</g>
				</g>
			</g>
		</g>
	</g>
	<g>
		<g>
			<path style="fill:#EF8007;" d="M85.544,303.655c20.538-12.689,41.075-25.377,61.612-38.065c2.737-1.691,0.227-6.018-2.524-4.318
				c-20.538,12.688-41.075,25.377-61.612,38.064C80.283,301.028,82.793,305.354,85.544,303.655L85.544,303.655z"/>
		</g>
		<g>
			<path style="fill:#FFE094;" d="M211.928,109.064c10.574-6.533,21.147-13.065,31.721-19.598c2.737-1.691,0.228-6.018-2.523-4.317
				c-10.574,6.532-21.148,13.064-31.721,19.598C206.668,106.438,209.177,110.764,211.928,109.064L211.928,109.064z"/>
		</g>
		<g>
			<path style="fill:#FFE094;" d="M147.156,382.919c10.573-6.533,21.147-13.065,31.721-19.598c2.736-1.691,0.228-6.018-2.523-4.318
				c-10.573,6.533-21.147,13.065-31.721,19.598C141.896,380.292,144.405,384.618,147.156,382.919L147.156,382.919z"/>
		</g>
		<g>
			<path style="fill:#EF8007;" d="M513.996,102.033c20.537-12.688,41.075-25.376,61.612-38.064c2.736-1.69,0.227-6.017-2.523-4.317
				c-20.537,12.688-41.075,25.377-61.612,38.064C508.736,99.407,511.245,103.733,513.996,102.033L513.996,102.033z"/>
		</g>
		<g>
			<path style="fill:#FFE094;" d="M579.83,189.025c10.573-6.533,21.147-13.065,31.721-19.598c2.736-1.691,0.227-6.018-2.523-4.317
				c-10.573,6.532-21.147,13.064-31.721,19.598C574.57,186.398,577.079,190.725,579.83,189.025L579.83,189.025z"/>
		</g>
		<g>
			<path style="fill:#EF8007;" d="M549.024,382.353c20.537-12.688,41.075-25.376,61.612-38.064c2.736-1.69,0.228-6.017-2.523-4.316
				c-20.537,12.688-41.075,25.376-61.612,38.064C543.765,379.727,546.273,384.053,549.024,382.353L549.024,382.353z"/>
		</g>
		<g>
			<path style="fill:#FFE094;" d="M310.901,440.227c10.573-6.533,21.147-13.065,31.721-19.598c2.736-1.691,0.228-6.018-2.523-4.317
				c-10.573,6.532-21.147,13.065-31.721,19.598C305.642,437.6,308.15,441.926,310.901,440.227L310.901,440.227z"/>
		</g>
	</g>
</g>
</svg>
