<?xml version="1.0" encoding="utf-8"?>
<!-- Generator: Adobe Illustrator 27.5.0, SVG Export Plug-In . SVG Version: 6.00 Build 0)  -->
<svg version="1.1" xmlns="http://www.w3.org/2000/svg" xmlns:xlink="http://www.w3.org/1999/xlink" x="0px" y="0px"
	 viewBox="0 0 2500 2500" style="enable-background:new 0 0 2500 2500;" xml:space="preserve">
<g id="Background">
	<rect style="fill:#FFFFFF;" width="2500" height="2500"/>
</g>
<g id="Illustration">
	<g id="Microsites_1_">
		<circle style="fill:#F2E6DC;" cx="1250" cy="1245.277" r="910.277"/>
		<g>
			<path style="fill:#F7F1EB;" d="M1653.906,1844.776H927.819V474.963h163.625l2.756,0c12.225,44.391,50.31,74.545,94.43,74.545
				h204.459c44.089,0,80.473-29.996,94.404-74.461l2.782-0.084h163.632V1844.776z"/>
			<path style="fill:#363E44;" d="M1599.931,1912.847H968.076c-55.632,0-100.892-45.259-100.892-100.891V467.131
				c0-55.632,45.26-100.891,100.892-100.891h631.854c55.631,0,100.891,45.26,100.891,100.891v1344.825
				C1700.821,1867.588,1655.562,1912.847,1599.931,1912.847z M968.076,368.24c-54.529,0-98.892,44.363-98.892,98.891v1344.825
				c0,54.529,44.362,98.891,98.892,98.891h631.854c54.528,0,98.891-44.362,98.891-98.891V467.131
				c0-54.529-44.362-98.891-98.891-98.891H968.076z"/>
		</g>
		<g>
			<rect x="1086.389" y="610.509" style="fill:#FFFFFF;" width="902.475" height="514.828"/>
			<path style="fill:#E6D0BE;" d="M2011.798,1148.272h-904.475V631.444h904.475V1148.272z M1109.323,1146.272h900.475V633.444
				h-900.475V1146.272z"/>
			<g>
				<path style="fill:#E6D0BE;" d="M1937.477,1005.204h-153.25c-0.553,0-1-0.448-1-1s0.447-1,1-1h153.25c0.553,0,1,0.448,1,1
					S1938.029,1005.204,1937.477,1005.204z"/>
				<path style="fill:#E6D0BE;" d="M1694.539,1005.204h-341.413c-0.553,0-1-0.448-1-1s0.447-1,1-1h341.413c0.553,0,1,0.448,1,1
					S1695.092,1005.204,1694.539,1005.204z"/>
				<path style="fill:#E6D0BE;" d="M1937.477,1040.299h-333.854c-0.553,0-1-0.448-1-1s0.447-1,1-1h333.854c0.553,0,1,0.448,1,1
					S1938.029,1040.299,1937.477,1040.299z"/>
				<path style="fill:#E6D0BE;" d="M1555.919,1040.299h-202.793c-0.553,0-1-0.448-1-1s0.447-1,1-1h202.793c0.553,0,1,0.448,1,1
					S1556.472,1040.299,1555.919,1040.299z"/>
			</g>
			<g>
				<g>
					
						<rect x="1181.208" y="810.517" transform="matrix(0.9013 0.4331 -0.4331 0.9013 502.4368 -453.5497)" style="fill:#EFBC73;" width="131.012" height="131.012"/>
				</g>
				<rect x="1365.832" y="811.714" style="fill:#F7F1EB;" width="184.955" height="56.101"/>
				<rect x="1365.832" y="890.678" style="fill:#F7F1EB;" width="261.526" height="56.101"/>
			</g>
			<g>
				<path style="fill:#363E44;" d="M1169.296,737.617l-18.064-62.58c-0.153-0.531,0.153-1.085,0.684-1.238
					c0.534-0.154,1.084,0.153,1.238,0.683l16.791,58.168l22.528-37.543L1215,732.65l16.791-58.168
					c0.154-0.531,0.707-0.838,1.238-0.683c0.53,0.153,0.837,0.708,0.684,1.238l-18.064,62.58l-23.176-38.623L1169.296,737.617z"/>
				<path style="fill:#363E44;" d="M1314.353,737.617l-23.176-38.623l-23.176,38.623l-18.065-62.58
					c-0.153-0.531,0.153-1.085,0.684-1.238c0.532-0.154,1.085,0.153,1.238,0.683l16.792,58.168l22.527-37.543l22.527,37.543
					l16.792-58.168c0.154-0.531,0.707-0.838,1.238-0.683c0.53,0.153,0.837,0.708,0.684,1.238L1314.353,737.617z"/>
				<path style="fill:#363E44;" d="M1413.058,737.617l-23.176-38.623l-23.176,38.623l-18.065-62.58
					c-0.153-0.531,0.153-1.085,0.684-1.238c0.532-0.154,1.085,0.153,1.238,0.683l16.792,58.168l22.527-37.543l22.527,37.543
					l16.792-58.168c0.154-0.531,0.707-0.838,1.238-0.683c0.53,0.153,0.837,0.708,0.684,1.238L1413.058,737.617z"/>
			</g>
		</g>
		<g>
			<path style="fill:#BC8271;" d="M1143.489,1143.52c0.002-0.001,0.004-0.004,0.003-0.006
				c-20.113-92.221-32.614-158.035-37.272-178.202c-0.488-2.112-1.332-5.843-3.702-10.214c-8.782-16.197-24.443-15.223-41.449-28.04
				c-19.296-14.543-21.927-33.656-27.942-32.281c-4.184,0.957-5.221,8.446-1.602,23.249c0,0.001-0.002,0.002-0.002,0.001
				c-4.043-10.931-10.173-25.515-16.207-23.263c-6.828,2.973-1.639,20.954,2.032,31.678c-4.444-12.981-10.69-18.554-13.741-16.46
				c-4.803,3.296-3.701,14.164,2.837,31.092c0,0.001-0.001,0.001-0.001,0.001c-7.78-10.427-11.221-11.797-13.467-9.289
				c-4.101,4.58,1.536,18.396,8.392,29.845c7.718,12.89,18.175,20.209,24.879,24.666c0.002,0.001,0.003,0.003,0.003,0.005
				c-0.366,68.877-7.138,111.286-2.256,164.752c0.999,10.938,30.349,15.922,41.161,13.988
				C1094.388,1159.813,1110.752,1156.347,1143.489,1143.52z"/>
			<path style="fill:#BC8271;" d="M1073.926,942.453c-3.591-23.637,0.124-32.923,3.887-33.373
				c6.33-0.756,17.656,18.169,27.255,52.053C1095.925,956.706,1083.069,946.879,1073.926,942.453z"/>
			<path style="fill:#363E44;" d="M1064.453,982.136c-0.487,0-0.913-0.356-0.988-0.852c-0.61-4.063-2.362-10.044-7.235-15.465
				c-6.896-7.671-15.814-9.328-19.328-9.684c-0.55-0.056-0.95-0.546-0.895-1.096c0.056-0.549,0.545-0.949,1.096-0.894
				c3.745,0.38,13.251,2.147,20.614,10.337c5.205,5.79,7.074,12.171,7.727,16.504c0.082,0.546-0.294,1.055-0.841,1.137
				C1064.553,982.132,1064.502,982.136,1064.453,982.136z"/>
			<path style="fill:#363E44;" d="M1094.156,947.232c-0.214,0-0.43-0.069-0.612-0.21c-4.031-3.131-8.812-5.272-13.872-7.538
				c-2.422-1.084-4.927-2.206-7.512-3.501c-0.493-0.247-0.693-0.848-0.446-1.342c0.248-0.494,0.845-0.694,1.343-0.446
				c2.546,1.275,5.03,2.388,7.433,3.463c5.174,2.317,10.061,4.505,14.281,7.784c0.437,0.339,0.516,0.967,0.177,1.403
				C1094.75,947.099,1094.455,947.232,1094.156,947.232z"/>
			<path style="fill:#363E44;" d="M1045.171,935.972c-0.223,0-0.446-0.074-0.633-0.226c-2.301-1.884-4.435-3.987-6.341-6.252
				c-2.769-3.288-5.092-6.946-6.906-10.871c-0.231-0.502-0.013-1.096,0.488-1.327c0.506-0.233,1.097-0.012,1.328,0.488
				c1.738,3.763,3.966,7.27,6.619,10.421c1.828,2.171,3.873,4.187,6.079,5.993c0.427,0.35,0.49,0.98,0.14,1.407
				C1045.748,935.847,1045.461,935.972,1045.171,935.972z"/>
			<path style="fill:#363E44;" d="M1030.479,942.684c-0.223,0-0.446-0.074-0.633-0.226c-2.299-1.882-4.432-3.986-6.34-6.252
				c-2.767-3.287-5.092-6.944-6.906-10.871c-0.232-0.501-0.014-1.096,0.487-1.327c0.503-0.233,1.096-0.013,1.327,0.488
				c1.741,3.765,3.969,7.271,6.621,10.422c1.829,2.172,3.874,4.189,6.078,5.993c0.427,0.35,0.49,0.98,0.14,1.407
				C1031.057,942.559,1030.77,942.684,1030.479,942.684z"/>
			<path style="fill:#363E44;" d="M1019.675,959.096c-0.223,0-0.446-0.074-0.633-0.226c-2.301-1.884-4.435-3.987-6.341-6.252
				c-2.769-3.288-5.092-6.946-6.906-10.871c-0.231-0.501-0.013-1.095,0.488-1.327c0.507-0.233,1.098-0.012,1.328,0.488
				c1.738,3.764,3.966,7.27,6.619,10.422c1.828,2.171,3.873,4.187,6.079,5.993c0.427,0.35,0.49,0.98,0.14,1.407
				C1020.252,958.971,1019.965,959.096,1019.675,959.096z"/>
		</g>
		<g>
			<rect x="1130.258" y="1224.672" style="fill:#FFD092;" width="902.475" height="330.434"/>
			<path style="fill:#FFFFFF;" d="M2055.667,1575.17h-904.475v-329.564h904.475V1575.17z M1153.192,1573.17h900.475v-325.564
				h-900.475V1573.17z"/>
			<path style="fill:#FFFFFF;" d="M1981.346,1312.286h-149.918c-0.553,0-1-0.448-1-1s0.447-1,1-1h149.918c0.553,0,1,0.448,1,1
				S1981.898,1312.286,1981.346,1312.286z"/>
			<path style="fill:#FFFFFF;" d="M1743.69,1312.286h-333.989c-0.553,0-1-0.448-1-1s0.447-1,1-1h333.989c0.553,0,1,0.448,1,1
				S1744.243,1312.286,1743.69,1312.286z"/>
			<path style="fill:#FFFFFF;" d="M1981.346,1347.38h-392.397c-0.553,0-1-0.448-1-1s0.447-1,1-1h392.397c0.553,0,1,0.448,1,1
				S1981.898,1347.38,1981.346,1347.38z"/>
			<path style="fill:#FFFFFF;" d="M1542.281,1347.38h-132.58c-0.553,0-1-0.448-1-1s0.447-1,1-1h132.58c0.553,0,1,0.448,1,1
				S1542.834,1347.38,1542.281,1347.38z"/>
			<path style="fill:#FFFFFF;" d="M1981.346,1380.282h-149.918c-0.553,0-1-0.448-1-1s0.447-1,1-1h149.918c0.553,0,1,0.448,1,1
				S1981.898,1380.282,1981.346,1380.282z"/>
			<path style="fill:#FFFFFF;" d="M1743.69,1380.282h-333.989c-0.553,0-1-0.448-1-1s0.447-1,1-1h333.989c0.553,0,1,0.448,1,1
				S1744.243,1380.282,1743.69,1380.282z"/>
			<path style="fill:#FFFFFF;" d="M1981.346,1415.377H1698.62c-0.553,0-1-0.448-1-1s0.447-1,1-1h282.726c0.553,0,1,0.448,1,1
				S1981.898,1415.377,1981.346,1415.377z"/>
			<path style="fill:#FFFFFF;" d="M1630.019,1415.377h-220.317c-0.553,0-1-0.448-1-1s0.447-1,1-1h220.317c0.553,0,1,0.448,1,1
				S1630.571,1415.377,1630.019,1415.377z"/>
			<path style="fill:#FFFFFF;" d="M1743.69,1465.826h-333.989c-0.553,0-1-0.448-1-1s0.447-1,1-1h333.989c0.553,0,1,0.448,1,1
				S1744.243,1465.826,1743.69,1465.826z"/>
			<path style="fill:#FFFFFF;" d="M1608.084,1500.921h-198.383c-0.553,0-1-0.448-1-1s0.447-1,1-1h198.383c0.553,0,1,0.448,1,1
				S1608.637,1500.921,1608.084,1500.921z"/>
		</g>
		<g>
			<path style="fill:#776E42;" d="M1723.543,1598.122c34.015-45.117,70.726-82.831,105.14-109.901l-2.662,81.556l32.77-102.887
				c39.17-24.526,72.867-32.263,92.413-17.526c40.673,30.665,4.691,146.984-80.37,259.807
				c-85.061,112.822-186.989,179.424-227.662,148.759C1602.499,1827.264,1638.482,1710.944,1723.543,1598.122z"/>
			<path style="fill:#8B865C;" d="M1545.12,1632.059l49.444,41.287l-41.765-66.563c33.834-102.39,90.893-172.602,134.396-161.131
				c48.017,12.661,61.335,120.037,29.748,239.832c-31.588,119.794-96.12,206.643-144.136,193.982
				c-48.017-12.661-61.335-120.037-29.748-239.832C1543.73,1637.092,1544.42,1634.571,1545.12,1632.059z"/>
			<path style="fill:#8B865C;" d="M1839.337,1833.839l-43.9-17.6l57.569,3.84c54.426-57.505,79.964-118.829,57.409-142.964
				c-24.895-26.639-98.952,2.116-165.412,64.224c-66.459,62.109-100.154,134.053-75.259,160.692
				c24.895,26.639,98.953-2.116,165.412-64.225C1836.567,1836.489,1837.956,1835.165,1839.337,1833.839z"/>
			<path style="fill:#E6D0BE;" d="M1494.543,2138.853c-0.143,0-0.287-0.03-0.425-0.095c-0.5-0.235-0.714-0.831-0.479-1.331
				c75.645-160.804,187.631-327.854,268.256-439.674c87.351-121.149,157.726-205.367,158.427-206.204
				c0.354-0.423,0.985-0.479,1.409-0.125c0.423,0.354,0.479,0.985,0.124,1.409c-0.7,0.836-71.038,85.01-158.348,206.103
				c-80.572,111.749-192.481,278.682-268.058,439.342C1495.278,2138.641,1494.919,2138.853,1494.543,2138.853z"/>
			<path style="fill:#FFFFFF;" d="M1485.761,2127.798c-0.13,0-0.261-0.025-0.388-0.079c-0.509-0.214-0.748-0.8-0.534-1.309
				c71.588-170.378,119.331-324.183,146.776-423.207c29.734-107.282,42.704-175.133,42.832-175.806
				c0.103-0.543,0.619-0.902,1.169-0.796c0.542,0.103,0.898,0.626,0.796,1.168c-0.128,0.674-13.113,68.606-42.869,175.968
				c-27.462,99.08-75.231,252.972-146.86,423.447C1486.521,2127.568,1486.15,2127.798,1485.761,2127.798z"/>
			<path style="fill:#FFFFFF;" d="M1495.615,2142.973c-0.163,0-0.328-0.04-0.48-0.124c-0.484-0.266-0.661-0.874-0.395-1.358
				c68.986-125.482,162.832-235.831,229.411-306.305c70.273-74.386,130.813-125.918,134.137-126.427
				c0.559-0.086,1.057,0.292,1.14,0.837c0.079,0.515-0.249,0.998-0.744,1.121c-4.015,1.728-62.11,50.571-134.379,127.22
				c-66.089,70.096-159.26,179.826-227.813,304.518C1496.311,2142.786,1495.968,2142.973,1495.615,2142.973z M1858.595,1710.735
				c-0.001,0-0.003,0-0.004,0C1858.592,1710.736,1858.594,1710.736,1858.595,1710.735z"/>
		</g>
		<g>
			<g>
				<g>
					<polygon style="fill:#84524D;" points="533.197,2076.818 427.31,2075.227 447.954,1937.038 553.841,1954.979 					"/>
					<g>
						<path style="fill:#8B865C;" d="M681.14,2147.109H406.938l25.248-104.821h107.422l77.68,23.696
							C655.359,2076.294,681.491,2109.497,681.14,2147.109z"/>
					</g>
				</g>
				<g>
					<polygon style="fill:#84524D;" points="778.44,2076.818 672.553,2075.227 693.196,1937.038 799.083,1954.979 					"/>
					<g>
						<path style="fill:#8B865C;" d="M926.383,2147.109H652.181l25.248-104.821h107.422l77.68,23.696
							C900.601,2076.294,926.734,2109.497,926.383,2147.109z"/>
					</g>
				</g>
				<path style="fill:#363E44;" d="M820.56,1306.764c11.316,29.744,30.41,691.45,30.41,691.45l-190.586-3.544
					c0,0,14.145-295.896,12.574-446.41c-20.777,123.43-74.965,416.183-85.073,446.507c-53.909-1.685-124.167-3.369-178.076-5.054
					c57.329-253.683,117.001-533.274,159.545-720.012C636.739,1282.056,753.175,1294.41,820.56,1306.764z"/>
			</g>
			<g>
				<path style="fill:#84524D;" d="M924.474,1178.823c115.775,145.098,70.8,150.301,45.736,168.829
					c-20.307,15.012-86.893-38.283-134.62-99.261c-47.727-60.978-66.52-125.984-41.976-145.195
					C818.16,1083.986,876.178,1118.295,924.474,1178.823z"/>
				<path style="fill:#84524D;" d="M510.21,1090.871c-46.658,28.715-185.996,104.416-156.683,155.386
					c24.247,42.16,161.642-31.281,209.681-57.182C547.086,1158.185,526.332,1121.761,510.21,1090.871z"/>
				<path style="fill:#E0AA63;" d="M465.22,1102.253c35.703-16.196,131.266-62.284,272.9-42.009
					c95.676,13.696,151.496,74.985,173.584,96.09c-16.848,20.964-50.043,41.928-66.889,62.893
					c8.064,56.164,17.22,136.651,25.83,180.452c-64.015-0.562-343.507,0-343.507,0s10.005-131.989,15.333-181.536
					c-19.049,6.28-23.651,7.324-23.651,7.324C502.511,1185.658,481.304,1137.962,465.22,1102.253z"/>
				<path style="fill:#363E44;" d="M844.813,1220.227c-0.475,0-0.895-0.338-0.982-0.821c-1.775-9.761-4.215-22.614-6.574-35.043
					c-2.359-12.433-4.8-25.289-6.575-35.058c-0.1-0.543,0.261-1.064,0.805-1.163c0.542-0.098,1.064,0.261,1.162,0.805
					c1.775,9.761,4.215,22.614,6.574,35.043c2.359,12.433,4.8,25.289,6.575,35.058c0.1,0.543-0.261,1.064-0.805,1.163
					C844.933,1220.221,844.873,1220.227,844.813,1220.227z"/>
				<path style="fill:#363E44;" d="M542.471,1219.143c-0.398,0-0.773-0.238-0.929-0.63c-0.205-0.513,0.045-1.095,0.559-1.299
					l37.427-14.924c0.51-0.203,1.094,0.045,1.299,0.559c0.205,0.513-0.045,1.095-0.559,1.299l-37.427,14.924
					C542.72,1219.12,542.595,1219.143,542.471,1219.143z"/>
			</g>
			<g>
				<path style="fill:#84524D;" d="M452.98,1221.104c32.223,33.656,112.031,109.159,119.528,116.839
					c14.014,14.358,64.269,84.136,51.955,90.293c-6.392,3.196-22.371-19.708-27.948-29.395c5.366,8.464,24.22,48.836,15.165,53.897
					c-6.452,3.605-34.628-38.605-35.118-38.838c1.291,4.362,25.473,38.158,15.423,43.632c-8.802,4.794-27.421-23.19-34.718-31.786
					c-0.286,1.257,19.817,32.214,11.007,38.177c-8.262,5.593-27.682-24.52-32.857-30.202
					c-12.462-12.746-35.134-29.439-61.036-51.058c-60.832-50.776-85.827-75.97-110.771-105.819
					c-9.675-11.578-23.483-39.044-7.798-67.075C388.556,1213.753,420.237,1217.12,452.98,1221.104z"/>
				<path style="fill:#363E44;" d="M465.22,1234.759c-0.259,0-0.518-0.1-0.714-0.3c-8.24-8.397-13.394-13.669-16.217-16.592
					c-0.383-0.397-0.372-1.03,0.025-1.414c0.396-0.384,1.03-0.372,1.414,0.025c2.818,2.919,7.968,8.187,16.205,16.58
					c0.387,0.394,0.381,1.027-0.014,1.414C465.726,1234.664,465.473,1234.759,465.22,1234.759z"/>
				<path style="fill:#363E44;" d="M585.276,1378.671c-0.281,0-0.563-0.119-0.76-0.35c-0.359-0.419-0.31-1.051,0.109-1.41
					l6.708-5.74c0.419-0.358,1.052-0.311,1.41,0.11c0.359,0.419,0.31,1.051-0.109,1.41l-6.708,5.74
					C585.738,1378.592,585.507,1378.671,585.276,1378.671z"/>
				<path style="fill:#363E44;" d="M568.274,1393.26c-0.281,0-0.563-0.119-0.76-0.35c-0.359-0.419-0.31-1.051,0.109-1.41l6.708-5.74
					c0.419-0.358,1.052-0.311,1.41,0.11c0.359,0.419,0.31,1.051-0.109,1.41l-6.708,5.74
					C568.736,1393.181,568.505,1393.26,568.274,1393.26z"/>
				<path style="fill:#363E44;" d="M551.125,1408.305c-0.281,0-0.563-0.119-0.76-0.35c-0.359-0.419-0.309-1.051,0.109-1.41
					l6.709-5.74c0.419-0.357,1.052-0.311,1.41,0.11c0.359,0.419,0.31,1.051-0.109,1.41l-6.709,5.74
					C551.587,1408.226,551.356,1408.305,551.125,1408.305z"/>
				<path style="fill:#363E44;" d="M535.292,1421.63c-0.281,0-0.563-0.119-0.76-0.35c-0.359-0.42-0.31-1.051,0.109-1.41l6.709-5.74
					c0.419-0.357,1.052-0.311,1.41,0.11c0.359,0.419,0.31,1.051-0.109,1.41l-6.709,5.74
					C535.754,1421.551,535.523,1421.63,535.292,1421.63z"/>
			</g>
			<g>
				<path style="fill:#84524D;" d="M926.594,1251.518c16.077-43.733,52.348-142.716,55.954-152.825
					c6.741-18.897,40.429-110.276,53.77-105.551c8.522,3.018-7.457,49.004-9.611,57.231c4.995-8.937,23.255-58.484,31.272-56.521
					c8.7,2.131-8.985,67.287-8.979,67.829c2.764-6.752,22.029-56.685,29.219-53.625c8.345,3.551-7.102,57.171-10.1,65.754
					c1.255-0.295,13.218-37.543,21.804-35.185c7.65,2.101-4.263,45.138-5.04,51.309c-2.49,16.068-11.01,44.495-19.052,77.261
					c-18.888,76.954-30.539,110.477-46.394,145.998c-6.15,13.778-23.811,36.663-57.37,37.019
					C951.261,1319.048,937.401,1282.683,926.594,1251.518z"/>
				<path style="fill:#363E44;" d="M937.131,1226.263c-0.114,0-0.231-0.02-0.345-0.062c-0.518-0.19-0.784-0.765-0.594-1.283
					l8.61-23.47c0.191-0.518,0.762-0.784,1.283-0.594c0.519,0.19,0.784,0.765,0.594,1.283l-8.61,23.47
					C937.921,1226.012,937.538,1226.263,937.131,1226.263z"/>
				<path style="fill:#363E44;" d="M1024.246,1098.898c-0.13,0-0.262-0.025-0.389-0.079c-0.509-0.215-0.747-0.801-0.533-1.31
					c13.357-31.675,15.205-44.705,12.48-46.337c-1.201-0.716-6.944-0.849-30.678,27.482c-0.354,0.423-0.984,0.479-1.409,0.125
					c-0.423-0.355-0.478-0.985-0.124-1.409c26.676-31.843,31.616-28.886,33.238-27.913c1.763,1.056,7.126,4.27-11.664,48.83
					C1025.007,1098.668,1024.636,1098.898,1024.246,1098.898z"/>
			</g>
			<g>
				<g>
					<path style="fill:#84524D;" d="M757.111,1030.364c-13.525,9.606-51.733-16.473-51.733-16.473l-21.86-45.725
						c0-23.338,18.919-42.256,42.256-42.256c23.338,0,42.257,18.919,42.257,42.256
						C768.031,968.166,770.887,1020.581,757.111,1030.364z"/>
					<path style="fill:#84524D;" d="M709.632,1090.871c14.422,0,26.114-11.691,26.114-26.114v-97.066h-52.227v97.066
						C683.518,1079.18,695.21,1090.871,709.632,1090.871z"/>
					<g>
						<path style="fill:#FFFFFF;" d="M720.847,974.522c0,0,7.753-4.17,17.1-4.17c1.989,0-1.763,15.913-3.651,15.011
							C725.997,981.402,720.847,974.522,720.847,974.522z"/>
						<path style="fill:#363E44;" d="M744.069,971c-2.069-0.457-4.122-0.635-6.107-0.635c-3.864,4.148-5.092,9.853-3.674,14.994
							c1.89,0.903,3.942,1.656,6.136,2.141c11.82,2.611,23.223-3.523,23.223-3.523S755.887,973.61,744.069,971z"/>
					</g>
					<path style="fill:#363E44;" d="M735.61,1030.665c-0.11,0-0.223-0.018-0.333-0.057c-14.697-5.186-30.307-15.784-30.462-15.891
						c-0.456-0.311-0.574-0.933-0.263-1.39c0.311-0.456,0.936-0.573,1.39-0.262c0.154,0.105,15.554,10.559,30.001,15.656
						c0.521,0.184,0.794,0.755,0.61,1.276C736.408,1030.408,736.023,1030.665,735.61,1030.665z"/>
				</g>
				<path style="fill:#363E44;" d="M754.269,1009.583c-0.95,0-1.898-0.245-2.747-0.751c-1.846-1.099-2.871-3.259-2.612-5.501
					c0.063-0.549,0.558-0.939,1.107-0.879c0.549,0.063,0.942,0.559,0.879,1.108c-0.168,1.462,0.479,2.857,1.649,3.554
					c1.435,0.854,3.412,0.482,4.597-0.867c0.364-0.415,0.998-0.455,1.411-0.091c0.415,0.365,0.455,0.997,0.091,1.411
					C757.486,1008.883,755.874,1009.583,754.269,1009.583z"/>
				<path style="fill:#84524D;" d="M774.185,994.754c-0.506-2.76-3.654-4.392-6.078-6.608c-1.43-1.307-2.142-2.671-2.492-3.834
					v15.842c1.177-0.08,2.657-0.223,3.81-0.476C772.081,999.095,774.619,997.117,774.185,994.754z"/>
				<g>
					<path style="fill:#363E44;" d="M704.013,1001.292c-4.365,0-8.86-1.79-12.408-5.02c-7.018-6.388-8.287-16.462-2.83-22.457
						c3.869-4.251,10.33-5.473,16.458-3.116c0.515,0.198,0.772,0.777,0.574,1.292c-0.199,0.515-0.777,0.773-1.293,0.574
						c-5.35-2.058-10.949-1.041-14.261,2.595c-4.714,5.179-3.504,13.986,2.697,19.631c3.767,3.428,8.691,5.047,13.176,4.333
						c0.544-0.089,1.058,0.285,1.145,0.83c0.087,0.545-0.284,1.058-0.83,1.145C705.641,1001.229,704.829,1001.292,704.013,1001.292z
						"/>
					<path style="fill:#363E44;" d="M698.136,992.563c-0.184,0-0.37-0.051-0.536-0.157c-0.513-0.327-1.003-0.702-1.459-1.117
						c-1.802-1.64-2.957-3.785-3.253-6.039c-0.305-2.317,0.328-4.472,1.782-6.068c0.738-0.811,1.641-1.426,2.682-1.828
						c0.514-0.198,1.094,0.057,1.293,0.573c0.199,0.515-0.058,1.094-0.572,1.293c-0.749,0.289-1.397,0.73-1.924,1.309
						c-1.051,1.154-1.504,2.738-1.278,4.461c0.234,1.786,1.164,3.498,2.616,4.82c0.372,0.338,0.771,0.643,1.188,0.909
						c0.466,0.297,0.603,0.915,0.307,1.381C698.789,992.399,698.466,992.563,698.136,992.563z"/>
				</g>
				<path style="fill:#363E44;" d="M786.757,913.161c-2.34-3.493-11.103-1.867-20.878,3.452c2.011-5.449,2.16-9.764-0.049-11.422
					c-2.465-1.849-7.279,0.039-12.613,4.422c3.612-4.418,5.132-8.378,3.612-10.649c-2.654-3.963-13.571-1.345-24.861,5.791
					c-0.205-9.579-2.638-16.62-6.416-17.072c-4.031-0.482-8.346,6.676-10.736,16.965c-2.508-6.448-5.787-10.461-8.845-10.054
					c-1.456,0.194-2.693,1.388-3.675,3.305c-3.318-3.853-6.562-5.779-8.921-4.833c-3.45,1.384-4.03,8.508-1.922,17.512
					c-5.843-2.341-10.177-2.823-11.642-0.868c-1.591,2.123,0.532,6.686,5.16,12.223c-10.979-5.314-19.727-7.226-21.679-4.181
					c-1.467,2.289,1.226,6.905,6.643,12.351c-5.938-0.805-10.189-0.12-11.235,2.259c-1.332,3.03,2.86,8.024,10.191,12.972
					c-5.349,2.378-8.622,5.465-8.23,8.41c0.351,2.635,3.568,4.611,8.382,5.643c-9.245,3.254-15.34,7.882-14.552,11.663
					c1.019,4.898,13.175,6.51,27.15,3.602c13.975-2.909,24.478-9.237,23.459-14.134c-0.131-0.628-0.45-1.2-0.928-1.717
					c4.471,0.335,7.656-0.357,8.778-2.16c5.464,1.613,9.391,1.669,10.618-0.246c0.909-1.417,0.2-3.738-1.734-6.582
					c6.476,2.941,11.474,3.916,13.525,2.33c2.682,0.989,5.685,1.822,8.9,2.418c12.503,2.318,23.378,0.209,24.29-4.71
					c0.485-2.614-1.961-5.491-6.217-7.965c9.798-0.225,17.028-2.732,17.454-6.571c0.187-1.685-0.984-3.405-3.133-5.008
					C784.643,923.545,789.002,916.514,786.757,913.161z"/>
			</g>
		</g>
		<g>
			<g>
				<polygon style="fill:#BC8271;" points="1158.989,2054.815 1262.868,2034.229 1217.737,1901.996 1116.795,1938.666 				"/>
				<path style="fill:#363E44;" d="M1038.34,2165l264.436-72.526l-52.074-94.41l-103.596,28.413l-68.646,43.398
					C1044.472,2089.888,1028.053,2128.82,1038.34,2165z"/>
			</g>
			<g>
				<polygon style="fill:#BC8271;" points="1371.349,2073.665 1478.49,2080.136 1468.634,1940.762 1360.191,1950.594 				"/>
				<path style="fill:#363E44;" d="M1226.991,2146.726h274.202l-25.248-104.821h-107.422l-77.68,23.696
					C1252.772,2075.911,1226.639,2109.114,1226.991,2146.726z"/>
			</g>
			<path style="fill:#FFFFFF;" d="M1409.366,1306.381c11.316,29.744,19.523,63.548,30.324,99.395
				c57.243,189.976,49.135,592.056,49.135,592.056l-141.538-3.544c0,0-52.787-266.112-76.224-438.692
				c-19.176,45.808-55.396,153.404-55.396,153.404s23.437,173.645,35.155,227.975c-46.874,18.11-93.214,27.698-150.741,43.677
				c-68.89-230.816-83.612-263.018-54.863-350.486c37.035-112.682,130.652-316.969,161.99-360.849
				C1274.593,1281.673,1341.98,1294.027,1409.366,1306.381z"/>
		</g>
		<g>
			<g>
				<path style="fill:#BC8271;" d="M1185.719,1065.376c-101.448,24.191-153.252,50.253-140.959,87.903
					c7.131,21.841,75.148,29.274,156.205,14.427C1198.332,1134.853,1189.785,1105.053,1185.719,1065.376z"/>
			</g>
			<path style="fill:#E0AA63;" d="M1435.164,1171.375c-7.211-25.638-35.231-116.098-139.2-115.053
				c-70.665,0.71-101.402,1.01-146.881,3.849c-3.875,43.338-2.445,204.969-17.887,246.853
				c63.296,9.588,319.659,42.001,319.659,42.001S1454.339,1239.555,1435.164,1171.375z"/>
			<g>
				<path style="fill:#BC8271;" d="M1258.701,1194.177c-152.801,94.713-112.922,114.756-95.811,140.441
					c13.793,20.706,92.352-5.689,157.406-45.815L1258.701,1194.177z"/>
				<path style="fill:#363E44;" d="M1324.868,1297.661l-72.467-111.328l73.283-42.134c0.477-0.276,1.09-0.11,1.365,0.368
					c0.275,0.479,0.11,1.09-0.369,1.365l-71.449,41.08l70.111,107.71l71.146-56.816c0.433-0.344,1.062-0.274,1.405,0.157
					c0.345,0.432,0.274,1.061-0.157,1.406L1324.868,1297.661z"/>
			</g>
		</g>
		<path style="fill:#363E44;" d="M1144.57,1143.76c-0.46,0-0.874-0.319-0.977-0.787c-2.353-10.797-4.903-21.279-7.369-31.415
			c-2.64-10.849-5.133-21.097-7.179-30.867c-0.113-0.541,0.233-1.071,0.773-1.184c0.54-0.113,1.07,0.233,1.184,0.774
			c2.04,9.738,4.529,19.971,7.165,30.804c2.469,10.148,5.021,20.641,7.381,31.462c0.117,0.54-0.225,1.072-0.765,1.19
			C1144.713,1143.753,1144.641,1143.76,1144.57,1143.76z"/>
		<g>
			<path style="fill:#BC8271;" d="M1220.943,1251.82c-26.763-38.142-87.224-124.5-93.303-133.345
				c-11.365-16.534-67.378-96.206-79.059-88.215c-7.462,5.105,19.784,45.449,23.978,52.847
				c-7.121-7.356-37.487-50.556-44.731-46.601c-7.862,4.292,25.953,62.727,26.086,63.253c-4.404-5.816-35.84-49.132-42.004-44.329
				c-7.154,5.574,21.537,53.434,26.638,60.959c-1.289,0.037-22.411-32.893-30.104-28.411c-6.854,3.994,15.705,42.532,18.04,48.297
				c6.531,14.891,22.061,40.179,38.243,69.783c38.006,69.529,51.851,105.006,82.312,129.2c13.631,10.827,41.862,9.584,74.354-0.536
				C1223.839,1301.828,1218.497,1284.714,1220.943,1251.82z"/>
			<path style="fill:#363E44;" d="M1144.572,1143.76c-0.315,0-0.626-0.149-0.82-0.427c-9.407-13.457-15.264-21.857-16.937-24.292
				c-3.235-4.708-20.268-29.307-37.847-51.346c-0.344-0.432-0.273-1.061,0.158-1.405c0.432-0.345,1.06-0.274,1.406,0.158
				c17.62,22.092,34.688,46.743,37.931,51.46c1.67,2.43,7.523,10.826,16.927,24.279c0.316,0.453,0.206,1.076-0.246,1.393
				C1144.97,1143.702,1144.77,1143.76,1144.572,1143.76z"/>
			<path style="fill:#363E44;" d="M1219.155,1247.331c-0.315,0-0.625-0.148-0.819-0.426l-13.378-19.08
				c-0.316-0.452-0.207-1.076,0.245-1.393c0.453-0.317,1.076-0.207,1.394,0.245l13.376,19.079c0.317,0.452,0.208,1.076-0.244,1.393
				C1219.554,1247.272,1219.354,1247.331,1219.155,1247.331z"/>
		</g>
		<g>
			<path style="fill:#BC8271;" d="M1254.021,1031.616c13.525,9.606,51.733-16.473,51.733-16.473l21.86-45.725
				c0-23.338-18.919-42.257-42.257-42.257c-23.338,0-42.257,18.919-42.257,42.257
				C1243.101,969.418,1240.246,1021.832,1254.021,1031.616z"/>
			<path style="fill:#BC8271;" d="M1256.116,1072.403c-1.532,10.974,18.923,22.899,45.688,26.636s49.704-2.13,51.237-13.103
				c1.532-10.974-17.785-28.185-44.55-31.922c-14.591-2.037-30.294,1.26-38.198,5.062
				C1262.57,1062.789,1256.813,1067.411,1256.116,1072.403z"/>
			
				<rect x="1275.343" y="968.588" transform="matrix(-1 -1.224647e-16 1.224647e-16 -1 2602.9124 2044.0065)" style="fill:#BC8271;" width="52.227" height="106.83"/>
			<path style="fill:#363E44;" d="M1275.343,1031.98c-0.413,0-0.8-0.258-0.943-0.67c-0.183-0.521,0.092-1.092,0.613-1.274
				c14.498-5.075,30.022-15.613,30.178-15.719c0.455-0.31,1.078-0.194,1.39,0.262c0.312,0.456,0.193,1.078-0.263,1.39
				c-0.157,0.107-15.893,10.791-30.645,15.954C1275.563,1031.962,1275.452,1031.98,1275.343,1031.98z"/>
			<g>
				<path style="fill:#FFFFFF;" d="M1290.286,975.774c0,0-7.753-4.17-17.1-4.17c-1.989,0,1.763,15.913,3.651,15.011
					C1285.136,982.654,1290.286,975.774,1290.286,975.774z"/>
				<path style="fill:#363E44;" d="M1267.064,972.251c-11.82,2.611-19.578,12.977-19.578,12.977s11.403,6.133,23.221,3.523
					c2.194-0.485,4.245-1.238,6.136-2.141c1.418-5.141,0.19-10.846-3.672-14.994
					C1271.185,971.617,1269.134,971.794,1267.064,972.251z"/>
			</g>
			<g>
				<path style="fill:#363E44;" d="M1238.823,961.959c-1.44-6.459,8.664-42.612,45.246-44.748
					c19.996-1.168,43.929,4.347,60.356,27.703c22.726,32.314,30.182,112.922,30.182,112.922s-79.375,20.634-83.456,24.857
					c-5.36-4.228,28.839-74.399,22.259-79.637c11.095-11.164,11.13-22.55,7.457-26.988c-2.967-3.586-10.354-7.363-19.886,0.71
					c-2.397-6.303-12.389-14.217-26.866-14.82C1265.591,961.604,1238.823,961.959,1238.823,961.959z"/>
			</g>
			<path style="fill:#363E44;" d="M1258.539,1011.056c-1.605,0-3.218-0.699-4.375-2.015c-0.364-0.415-0.324-1.047,0.091-1.411
				c0.412-0.364,1.047-0.325,1.411,0.09c1.187,1.349,3.164,1.722,4.597,0.867c1.17-0.697,1.817-2.092,1.649-3.554
				c-0.063-0.548,0.33-1.045,0.879-1.108c0.554-0.062,1.045,0.331,1.107,0.879c0.259,2.243-0.767,4.403-2.612,5.501
				C1260.437,1010.812,1259.489,1011.056,1258.539,1011.056z"/>
			<path style="fill:#BC8271;" d="M1236.988,996.227c0.506-2.76,3.654-4.392,6.078-6.608c1.43-1.307,2.142-2.671,2.492-3.834v15.842
				c-1.177-0.08-2.657-0.223-3.81-0.476C1239.093,1000.569,1236.554,998.591,1236.988,996.227z"/>
			<path style="fill:#363E44;" d="M1312.108,993.853c-0.196,0-0.395-0.058-0.568-0.178c-0.454-0.314-0.567-0.938-0.253-1.391
				c3.993-5.761,5.118-9.503,3.345-11.12c-1.909-1.74-4.031-0.349-5.854,1.245c-0.271,0.236-0.434,0.379-0.602,0.478
				c-0.479,0.279-1.09,0.118-1.368-0.359c-0.274-0.47-0.123-1.071,0.338-1.355c0.072-0.053,0.179-0.149,0.315-0.269
				c1.244-1.087,5.028-4.399,8.519-1.217c3.555,3.242-0.037,9.393-3.048,13.737C1312.737,993.703,1312.426,993.853,1312.108,993.853
				z"/>
		</g>
		<g>
			<path style="fill:#E6D0BE;" d="M985.625,1000.879c-0.258,0-0.516-0.099-0.712-0.297l-44.19-44.738
				c-0.388-0.393-0.384-1.026,0.009-1.414c0.394-0.388,1.025-0.385,1.415,0.009l44.189,44.739c0.388,0.393,0.384,1.026-0.009,1.414
				C986.133,1000.783,985.879,1000.879,985.625,1000.879z"/>
			<path style="fill:#E6D0BE;" d="M971.59,1017.058c-0.066,0-0.133-0.007-0.2-0.02l-47.936-9.757
				c-0.541-0.11-0.891-0.638-0.78-1.179c0.109-0.541,0.639-0.889,1.179-0.781l47.936,9.757c0.541,0.11,0.891,0.638,0.78,1.18
				C972.473,1016.731,972.056,1017.058,971.59,1017.058z"/>
			<path style="fill:#E6D0BE;" d="M915.709,1050.981c-0.449,0-0.857-0.304-0.97-0.76c-0.133-0.536,0.194-1.078,0.73-1.211
				l51.451-12.744c0.527-0.132,1.077,0.194,1.211,0.73c0.133,0.536-0.194,1.078-0.73,1.211l-51.451,12.744
				C915.87,1050.972,915.789,1050.981,915.709,1050.981z"/>
		</g>
		<g>
			<circle style="fill:#E6D0BE;" cx="841.687" cy="674.759" r="164.169"/>
			<path style="fill:#FFFFFF;" d="M865.492,839.928c-0.328,0-0.649-0.001-0.978-0.003c-44.117-0.254-85.495-17.673-116.512-49.049
				c-31.016-31.375-47.957-72.951-47.703-117.069c0.254-44.117,17.673-85.495,49.049-116.512
				c31.375-31.016,72.97-47.978,117.068-47.704c44.117,0.254,85.495,17.673,116.512,49.049
				c31.016,31.375,47.957,72.951,47.703,117.069c-0.254,44.117-17.673,85.495-49.048,116.512
				C950.442,823.007,909.244,839.928,865.492,839.928z M865.44,511.59c-43.224,0-83.919,16.714-114.686,47.129
				c-30.995,30.641-48.203,71.518-48.454,115.101c-0.251,43.583,16.485,84.655,47.126,115.651
				c30.641,30.996,71.518,48.204,115.101,48.455c43.63,0.266,84.656-16.486,115.651-47.126
				c30.995-30.641,48.203-71.518,48.454-115.101c0.251-43.583-16.485-84.656-47.126-115.651
				c-30.641-30.996-71.518-48.204-115.101-48.455C866.083,511.591,865.761,511.59,865.44,511.59z"/>
			<path style="fill:#FFFFFF;" d="M865.753,596.124c-45.633,0-90.489-7.684-129.72-22.221l0.695-1.875
				c39.01,14.456,83.626,22.097,129.024,22.097c45.052,0,89.37-7.531,128.164-21.779l0.689,1.877
				C955.594,588.551,911.037,596.124,865.753,596.124z"/>
			<path style="fill:#FFFFFF;" d="M735.231,775.215l-0.705-1.872c39.606-14.906,84.983-22.784,131.228-22.784
				c45.995,0,91.16,7.799,130.612,22.553l-0.701,1.873c-39.23-14.672-84.152-22.427-129.911-22.427
				C819.747,752.559,774.613,760.394,735.231,775.215z"/>
			<path style="fill:#FFFFFF;" d="M865.466,839.928c-23.158,0-44.878-17.268-61.157-48.623
				c-16.171-31.147-25.077-72.537-25.077-116.546c0-44.008,8.906-85.398,25.077-116.546c16.279-31.355,37.999-48.623,61.157-48.623
				s44.878,17.268,61.157,48.623c16.171,31.147,25.077,72.537,25.077,116.546c0,44.009-8.906,85.399-25.077,116.546
				C910.344,822.66,888.624,839.928,865.466,839.928z M865.466,511.59c-46.447,0-84.234,73.197-84.234,163.169
				c0,89.972,37.787,163.169,84.234,163.169c46.447,0,84.234-73.197,84.234-163.169C949.7,584.787,911.913,511.59,865.466,511.59z"
				/>
			<rect x="864.466" y="510.94" style="fill:#FFFFFF;" width="2" height="327.77"/>
			
				<rect x="864.435" y="509.521" transform="matrix(0.0078 -1 1 0.0078 184.9472 1533.9178)" style="fill:#FFFFFF;" width="2" height="328.482"/>
		</g>
	</g>
</g>
</svg>
